<svg width="318" height="318" viewBox="0 0 318 318" fill="none" xmlns="http://www.w3.org/2000/svg">
<mask id="mask0_708_2356" style="mask-type:luminance" maskUnits="userSpaceOnUse" x="0" y="0" width="318" height="318">
<path fill-rule="evenodd" clip-rule="evenodd" d="M0 0.000152588H317.03V317.03H0V0.000152588Z" fill="white"/>
</mask>
<g mask="url(#mask0_708_2356)">
<path fill-rule="evenodd" clip-rule="evenodd" d="M158.515 0.000152588C70.9697 0.000152588 0 70.9699 0 158.515C0 246.06 70.9697 317.03 158.515 317.03C246.06 317.03 317.03 246.06 317.03 158.515C317.03 70.9699 246.06 0.000152588 158.515 0.000152588Z" fill="#EFF3F9"/>
</g>
<path fill-rule="evenodd" clip-rule="evenodd" d="M120.795 263.841C109.409 263.841 100.179 254.61 100.179 243.225C100.179 231.838 109.409 222.609 120.795 222.609C132.181 222.609 141.411 231.838 141.411 243.225C141.411 254.61 132.181 263.841 120.795 263.841Z" fill="white"/>
<path fill-rule="evenodd" clip-rule="evenodd" d="M79.1045 221.172C75.7812 221.172 73.0874 218.478 73.0874 215.154C73.0874 211.83 75.7812 209.135 79.1045 209.135C82.4288 209.135 85.1226 211.83 85.1226 215.154C85.1226 218.478 82.4288 221.172 79.1045 221.172Z" fill="white"/>
<path fill-rule="evenodd" clip-rule="evenodd" d="M177.797 251.245C175.582 251.245 173.787 249.449 173.787 247.234C173.787 245.02 175.582 243.225 177.797 243.225C180.011 243.225 181.806 245.02 181.806 247.234C181.806 249.449 180.011 251.245 177.797 251.245Z" fill="white"/>
<path fill-rule="evenodd" clip-rule="evenodd" d="M233.288 61.915C231.074 61.915 229.279 60.1201 229.279 57.9054C229.279 55.6908 231.074 53.8958 233.288 53.8958C235.503 53.8958 237.298 55.6908 237.298 57.9054C237.298 60.1201 235.503 61.915 233.288 61.915Z" fill="white"/>
<path fill-rule="evenodd" clip-rule="evenodd" d="M215.331 98.3462H224.31V97.5647C224.31 94.9267 222.171 92.7881 219.532 92.7881H193.762C191.124 92.7881 188.986 94.9267 188.986 97.5647V173.74H209.014V104.664C209.014 101.175 211.842 98.3462 215.331 98.3462Z" fill="#E0E8F6"/>
<mask id="mask1_708_2356" style="mask-type:luminance" maskUnits="userSpaceOnUse" x="0" y="0" width="318" height="318">
<path fill-rule="evenodd" clip-rule="evenodd" d="M0 317.03H317.03V0H0V317.03Z" fill="white"/>
</mask>
<g mask="url(#mask1_708_2356)">
<path fill-rule="evenodd" clip-rule="evenodd" d="M161.873 173.74H183.776V107.837H161.873V173.74Z" fill="#D0DBF0"/>
<path fill-rule="evenodd" clip-rule="evenodd" d="M216.268 89.1652H197.029C196.293 89.1652 195.697 88.5696 195.697 87.8339V80.0272C195.697 79.2924 196.293 78.6959 197.029 78.6959H216.268C217.003 78.6959 217.599 79.2924 217.599 80.0272V87.8339C217.599 88.5696 217.003 89.1652 216.268 89.1652Z" fill="#E0E8F6"/>
<path fill-rule="evenodd" clip-rule="evenodd" d="M157.128 173.739H112.539V61.5421C112.539 59.0801 114.852 57.2732 117.242 57.8688L154.258 67.103C155.945 67.5235 157.128 69.0381 157.128 70.7763V173.739Z" fill="#D0DBF0"/>
<path fill-rule="evenodd" clip-rule="evenodd" d="M92.7725 173.739V134.958C92.7725 131.481 95.5909 128.662 99.0691 128.662H106.212V173.739H92.7725Z" fill="#E0E8F6"/>
<path fill-rule="evenodd" clip-rule="evenodd" d="M205.066 166.358C204.143 166.358 203.394 165.61 203.394 164.686V105.818C203.394 104.894 204.143 104.146 205.066 104.146C205.99 104.146 206.739 104.894 206.739 105.818V164.686C206.739 165.61 205.99 166.358 205.066 166.358Z" fill="#C0CBE2"/>
<path fill-rule="evenodd" clip-rule="evenodd" d="M195.788 166.358C194.864 166.358 194.115 165.61 194.115 164.686V105.818C194.115 104.894 194.864 104.146 195.788 104.146C196.711 104.146 197.46 104.894 197.46 105.818V164.686C197.46 165.61 196.711 166.358 195.788 166.358Z" fill="#C0CBE2"/>
<path fill-rule="evenodd" clip-rule="evenodd" d="M148.672 83.9307H122.273C120.827 83.9307 119.656 82.7587 119.656 81.3138C119.656 79.8679 120.827 78.696 122.273 78.696H148.672C150.118 78.696 151.289 79.8679 151.289 81.3138C151.289 82.7587 150.118 83.9307 148.672 83.9307Z" fill="#C1CAE7"/>
<path fill-rule="evenodd" clip-rule="evenodd" d="M148.672 95.405H122.273C120.827 95.405 119.656 94.2331 119.656 92.7881C119.656 91.3423 120.827 90.1703 122.273 90.1703H148.672C150.118 90.1703 151.289 91.3423 151.289 92.7881C151.289 94.2331 150.118 95.405 148.672 95.405Z" fill="#C1CAE7"/>
<path fill-rule="evenodd" clip-rule="evenodd" d="M148.672 106.88H122.273C120.827 106.88 119.656 105.708 119.656 104.262C119.656 102.817 120.827 101.645 122.273 101.645H148.672C150.118 101.645 151.289 102.817 151.289 104.262C151.289 105.708 150.118 106.88 148.672 106.88Z" fill="#C1CAE7"/>
<path fill-rule="evenodd" clip-rule="evenodd" d="M148.672 118.354H122.273C120.827 118.354 119.656 117.182 119.656 115.737C119.656 114.292 120.827 113.12 122.273 113.12H148.672C150.118 113.12 151.289 114.292 151.289 115.737C151.289 117.182 150.118 118.354 148.672 118.354Z" fill="#C1CAE7"/>
<path fill-rule="evenodd" clip-rule="evenodd" d="M148.672 129.829H122.273C120.827 129.829 119.656 128.657 119.656 127.212C119.656 125.766 120.827 124.594 122.273 124.594H148.672C150.118 124.594 151.289 125.766 151.289 127.212C151.289 128.657 150.118 129.829 148.672 129.829Z" fill="#C1CAE7"/>
<path fill-rule="evenodd" clip-rule="evenodd" d="M148.672 141.304H122.273C120.827 141.304 119.656 140.132 119.656 138.686C119.656 137.241 120.827 136.069 122.273 136.069H148.672C150.118 136.069 151.289 137.241 151.289 138.686C151.289 140.132 150.118 141.304 148.672 141.304Z" fill="#C1CAE7"/>
<path fill-rule="evenodd" clip-rule="evenodd" d="M148.672 152.778H122.273C120.827 152.778 119.656 151.606 119.656 150.161C119.656 148.715 120.827 147.543 122.273 147.543H148.672C150.118 147.543 151.289 148.715 151.289 150.161C151.289 151.606 150.118 152.778 148.672 152.778Z" fill="#C1CAE7"/>
<path fill-rule="evenodd" clip-rule="evenodd" d="M148.672 164.253H122.273C120.827 164.253 119.656 163.081 119.656 161.636C119.656 160.189 120.827 159.018 122.273 159.018H148.672C150.118 159.018 151.289 160.189 151.289 161.636C151.289 163.081 150.118 164.253 148.672 164.253Z" fill="#C1CAE7"/>
<path fill-rule="evenodd" clip-rule="evenodd" d="M82.4867 173.739H47.1626V104.056C47.1626 100.902 49.719 98.346 52.8728 98.346H76.7774C79.9303 98.346 82.4867 100.902 82.4867 104.056V173.739Z" fill="#E0E8F6"/>
<path fill-rule="evenodd" clip-rule="evenodd" d="M75.7992 113.37H53.8518C52.6221 113.37 51.6252 112.374 51.6252 111.145V111.06C51.6252 109.831 52.6221 108.834 53.8518 108.834H75.7992C77.0279 108.834 78.0248 109.831 78.0248 111.06V111.145C78.0248 112.374 77.0279 113.37 75.7992 113.37Z" fill="#C1CAE7"/>
<path fill-rule="evenodd" clip-rule="evenodd" d="M75.7992 123.314H53.8518C52.6221 123.314 51.6252 122.318 51.6252 121.088V121.004C51.6252 119.774 52.6221 118.777 53.8518 118.777H75.7992C77.0279 118.777 78.0248 119.774 78.0248 121.004V121.088C78.0248 122.318 77.0279 123.314 75.7992 123.314Z" fill="#C1CAE7"/>
<path fill-rule="evenodd" clip-rule="evenodd" d="M75.7992 133.257H53.8518C52.6221 133.257 51.6252 132.261 51.6252 131.032V130.947C51.6252 129.718 52.6221 128.721 53.8518 128.721H75.7992C77.0279 128.721 78.0248 129.718 78.0248 130.947V131.032C78.0248 132.261 77.0279 133.257 75.7992 133.257Z" fill="#C1CAE7"/>
<path fill-rule="evenodd" clip-rule="evenodd" d="M75.7992 143.201H53.8518C52.6221 143.201 51.6252 142.205 51.6252 140.975V140.891C51.6252 139.661 52.6221 138.664 53.8518 138.664H75.7992C77.0279 138.664 78.0248 139.661 78.0248 140.891V140.975C78.0248 142.205 77.0279 143.201 75.7992 143.201Z" fill="#C1CAE7"/>
<path fill-rule="evenodd" clip-rule="evenodd" d="M75.7992 153.144H53.8518C52.6221 153.144 51.6252 152.147 51.6252 150.918V150.834C51.6252 149.604 52.6221 148.608 53.8518 148.608H75.7992C77.0279 148.608 78.0248 149.604 78.0248 150.834V150.918C78.0248 152.147 77.0279 153.144 75.7992 153.144Z" fill="#C1CAE7"/>
<path fill-rule="evenodd" clip-rule="evenodd" d="M75.7992 163.087H53.8518C52.6221 163.087 51.6252 162.091 51.6252 160.861V160.777C51.6252 159.548 52.6221 158.551 53.8518 158.551H75.7992C77.0279 158.551 78.0248 159.548 78.0248 160.777V160.861C78.0248 162.091 77.0279 163.087 75.7992 163.087Z" fill="#C1CAE7"/>
<path fill-rule="evenodd" clip-rule="evenodd" d="M254.388 176.903H211.15V107.827C211.15 104.338 213.977 101.51 217.466 101.51H248.07C251.559 101.51 254.388 104.338 254.388 107.827V176.903Z" fill="#E0E8F6"/>
<path fill-rule="evenodd" clip-rule="evenodd" d="M246.657 116.534H218.88C217.627 116.534 216.612 115.519 216.612 114.265C216.612 113.014 217.627 111.997 218.88 111.997H246.657C247.91 111.997 248.926 113.014 248.926 114.265C248.926 115.519 247.91 116.534 246.657 116.534Z" fill="#C1CAE7"/>
<path fill-rule="evenodd" clip-rule="evenodd" d="M246.657 126.477H218.88C217.627 126.477 216.612 125.462 216.612 124.209C216.612 122.956 217.627 121.941 218.88 121.941H246.657C247.91 121.941 248.926 122.956 248.926 124.209C248.926 125.462 247.91 126.477 246.657 126.477Z" fill="#C1CAE7"/>
<path fill-rule="evenodd" clip-rule="evenodd" d="M246.657 136.421H218.88C217.627 136.421 216.612 135.405 216.612 134.152C216.612 132.899 217.627 131.884 218.88 131.884H246.657C247.91 131.884 248.926 132.899 248.926 134.152C248.926 135.405 247.91 136.421 246.657 136.421Z" fill="#C1CAE7"/>
<path fill-rule="evenodd" clip-rule="evenodd" d="M103.516 101.645C100.056 101.645 97.249 98.8393 97.249 95.3785V83.8894H74.0518V94.3697H80.1211C83.7395 94.3697 86.6725 97.3027 86.6725 100.921V173.74H90.1323V132.584C90.1323 128.743 93.2449 125.63 97.085 125.63H106.212V101.645H103.516Z" fill="#D0DBF0"/>
<path fill-rule="evenodd" clip-rule="evenodd" d="M212.923 71.9099H200.373C199.638 71.9099 199.041 71.3143 199.041 70.5786V64.3974C199.041 63.6616 199.638 63.0661 200.373 63.0661H212.923C213.659 63.0661 214.254 63.6616 214.254 64.3974V70.5786C214.254 71.3143 213.659 71.9099 212.923 71.9099Z" fill="#E0E8F6"/>
<path fill-rule="evenodd" clip-rule="evenodd" d="M209.014 60.5746H204.282V48.2755C204.282 47.7743 204.688 47.3675 205.189 47.3675H208.107C208.608 47.3675 209.014 47.7743 209.014 48.2755V60.5746Z" fill="#E0E8F6"/>
<path fill-rule="evenodd" clip-rule="evenodd" d="M220.751 185.338H81.5827C79.6182 185.338 78.0239 183.745 78.0239 181.779C78.0239 179.815 79.6182 178.22 81.5827 178.22H220.751C222.717 178.22 224.31 179.815 224.31 181.779C224.31 183.745 222.717 185.338 220.751 185.338Z" fill="#7E89A0"/>
<path fill-rule="evenodd" clip-rule="evenodd" d="M305.459 191.665C305.459 182.214 297.797 174.55 288.345 174.55H275.309H266.488H42.033C39.3336 174.55 37.1456 172.363 37.1456 169.663C37.1456 166.964 39.3336 164.776 42.033 164.776H43.4724V157.437H34.2254C24.7732 157.437 17.1113 165.099 17.1113 174.55C17.1113 184.003 24.7732 191.665 34.2254 191.665H271.231H283.457C286.158 191.665 288.345 193.853 288.345 196.551C288.345 199.251 286.158 201.439 283.457 201.439H274.308H250.25C248.222 201.439 246.579 203.083 246.579 205.109C246.579 207.136 248.222 208.779 250.25 208.779H288.547V208.769C297.905 208.659 305.459 201.048 305.459 191.665Z" fill="#919DB6"/>
<path fill-rule="evenodd" clip-rule="evenodd" d="M232.413 201.439H208.736C206.709 201.439 205.066 203.083 205.066 205.109C205.066 207.136 206.709 208.779 208.736 208.779H232.413C234.44 208.779 236.083 207.136 236.083 205.109C236.083 203.083 234.44 201.439 232.413 201.439Z" fill="#919DB6"/>
<path fill-rule="evenodd" clip-rule="evenodd" d="M121.945 237.155H187.001L199.37 264.643H110.034L121.945 237.155Z" fill="#DCE3ED"/>
<path fill-rule="evenodd" clip-rule="evenodd" d="M110.034 268.309H199.37V264.644H110.034V268.309Z" fill="#B3C5D0"/>
<path fill-rule="evenodd" clip-rule="evenodd" d="M174.703 254.794H147.215C145.064 254.794 143.321 253.051 143.321 250.899C143.321 248.749 145.064 247.005 147.215 247.005H174.703C176.854 247.005 178.597 248.749 178.597 250.899C178.597 253.051 176.854 254.794 174.703 254.794Z" fill="#B3C5D0"/>
<path fill-rule="evenodd" clip-rule="evenodd" d="M158.687 174.119C132.157 174.119 111.304 153.684 111.304 127.686C111.304 101.686 132.156 81.2521 158.687 81.2521C185.217 81.2521 206.069 101.686 206.069 127.686C206.069 153.684 185.216 174.119 158.687 174.119Z" fill="white"/>
<path fill-rule="evenodd" clip-rule="evenodd" d="M158.686 164.474C137.667 164.474 121.147 148.283 121.147 127.686C121.147 107.087 137.667 90.8973 158.686 90.8973C179.706 90.8973 196.226 107.087 196.226 127.686C196.226 148.283 179.705 164.474 158.686 164.474ZM158.687 59.7863C120.578 59.7863 89.4019 90.3393 89.4019 127.686C89.4019 178.61 158.687 253.785 158.687 253.785C158.687 253.785 227.971 178.61 227.971 127.686C227.971 90.3393 196.795 59.7863 158.687 59.7863Z" fill="#F52D56"/>
</g>
<mask id="mask2_708_2356" style="mask-type:luminance" maskUnits="userSpaceOnUse" x="89" y="59" width="70" height="195">
<path fill-rule="evenodd" clip-rule="evenodd" d="M89.4019 59.8462H158.686V253.845H89.4019V59.8462Z" fill="white"/>
</mask>
<g mask="url(#mask2_708_2356)">
<path fill-rule="evenodd" clip-rule="evenodd" d="M158.686 164.534C137.667 164.534 121.147 148.344 121.147 127.746C121.147 107.147 137.667 90.9582 158.686 90.9582C179.706 90.9582 196.226 107.147 196.226 127.746C196.226 148.344 179.705 164.534 158.686 164.534ZM158.687 59.8462C120.578 59.8462 89.4019 90.4001 89.4019 127.746C89.4019 178.671 158.687 253.845 158.687 253.845C158.687 253.845 227.971 178.671 227.971 127.746C227.971 90.4001 196.795 59.8462 158.687 59.8462Z" fill="#FC4974"/>
</g>
<path fill-rule="evenodd" clip-rule="evenodd" d="M160.843 110.594V113.709H163.719V112.032C163.719 110.842 162.753 109.876 161.562 109.876C161.166 109.876 160.843 110.197 160.843 110.594Z" fill="#E9E3D5"/>
<path fill-rule="evenodd" clip-rule="evenodd" d="M181.97 133.064C181.628 132.725 181.452 132.252 181.452 131.769V127.129C181.452 125.262 180.845 123.446 179.725 121.954L174.549 115.051C173.464 113.604 171.758 112.751 169.949 112.751H155.999C153.954 112.751 152.062 113.837 151.031 115.605L145.986 124.253L139.945 124.978C139.76 125 139.577 125.03 139.397 125.07L134.868 130.64V135.755C134.868 137.343 136.155 138.632 137.743 138.632H179.629C181.218 138.632 182.505 137.343 182.505 135.755V134.344C182.505 133.863 182.313 133.402 181.97 133.064Z" fill="#FFB545"/>
<path fill-rule="evenodd" clip-rule="evenodd" d="M181.972 133.065C181.627 132.726 181.451 132.252 181.451 131.769V130.005V127.129C181.451 125.337 180.881 123.495 179.725 121.954L174.549 115.051C173.957 114.261 173.179 113.65 172.301 113.256C171.502 114.256 171.446 115.706 172.249 116.777L175.592 121.233L172.637 124.253H175.682C177.26 124.253 178.566 125.52 178.575 127.098V127.129V131.769V131.789C178.577 132.312 177.986 132.625 177.569 132.31C176.247 131.314 174.603 130.723 172.825 130.723C169.478 130.723 166.612 132.813 165.46 135.755H163.719V115.627H160.843V135.755H149.362C148.25 133.219 145.718 131.442 142.776 131.442C139.834 131.442 137.303 133.219 136.191 135.755H134.868C134.868 137.343 136.155 138.632 137.743 138.632H179.629C181.218 138.632 182.505 137.343 182.505 135.755V134.399C182.505 133.903 182.325 133.413 181.972 133.065Z" fill="#FF7E40"/>
<path fill-rule="evenodd" clip-rule="evenodd" d="M155.045 127.848H157.92C158.317 127.848 158.639 127.526 158.639 127.129C158.639 126.732 158.317 126.41 157.92 126.41H155.045C154.647 126.41 154.325 126.732 154.325 127.129C154.325 127.526 154.647 127.848 155.045 127.848Z" fill="#35404A"/>
<path fill-rule="evenodd" clip-rule="evenodd" d="M166.547 127.848H169.422C169.819 127.848 170.141 127.526 170.141 127.129C170.141 126.732 169.819 126.41 169.422 126.41H166.547C166.149 126.41 165.827 126.732 165.827 127.129C165.827 127.526 166.149 127.848 166.547 127.848Z" fill="#35404A"/>
<path fill-rule="evenodd" clip-rule="evenodd" d="M153.516 117.053L149.315 124.253H160.843V115.627H156C154.981 115.627 154.029 116.174 153.516 117.053Z" fill="#87F8F4"/>
<path fill-rule="evenodd" clip-rule="evenodd" d="M175.268 120.803L172.249 116.777C171.706 116.052 170.854 115.627 169.948 115.627H163.719V124.254H173.543C174.734 124.254 175.7 123.288 175.7 122.097C175.7 121.63 175.548 121.176 175.268 120.803Z" fill="#87F8F4"/>
<path fill-rule="evenodd" clip-rule="evenodd" d="M179.055 127.129C178.26 127.129 177.617 127.773 177.617 128.567C177.617 129.361 178.26 130.004 179.055 130.004H181.451V127.129H179.055Z" fill="#C5324F"/>
<path fill-rule="evenodd" clip-rule="evenodd" d="M135.655 127.737C135.651 127.744 135.646 127.753 135.642 127.761C135.591 127.848 135.543 127.936 135.497 128.025C135.094 128.816 134.868 129.707 134.868 130.639H136.52C138.109 130.639 139.397 129.353 139.397 127.764V125.069C137.838 125.407 136.466 126.362 135.655 127.737Z" fill="#E9E3D5"/>
<path fill-rule="evenodd" clip-rule="evenodd" d="M142.775 143.663C140.001 143.663 137.743 141.406 137.743 138.631C137.743 135.856 140.001 133.599 142.775 133.599C145.55 133.599 147.807 135.856 147.807 138.631C147.807 141.406 145.55 143.663 142.775 143.663Z" fill="#596775"/>
<path fill-rule="evenodd" clip-rule="evenodd" d="M143.804 133.705C143.214 134.794 143.379 136.185 144.3 137.106L141.251 140.156C140.329 139.235 138.939 139.07 137.85 139.66C138.326 141.942 140.353 143.663 142.775 143.663C145.55 143.663 147.808 141.405 147.808 138.631C147.808 136.208 146.087 134.181 143.804 133.705Z" fill="#35404A"/>
<path fill-rule="evenodd" clip-rule="evenodd" d="M144.932 138.631C144.932 139.822 143.966 140.788 142.775 140.788C141.585 140.788 140.619 139.822 140.619 138.631C140.619 137.44 141.585 136.474 142.775 136.474C143.966 136.474 144.932 137.44 144.932 138.631Z" fill="#E9E3D5"/>
<path fill-rule="evenodd" clip-rule="evenodd" d="M172.824 143.663C170.05 143.663 167.792 141.406 167.792 138.631C167.792 135.856 170.05 133.599 172.824 133.599C175.599 133.599 177.857 135.856 177.857 138.631C177.857 141.406 175.599 143.663 172.824 143.663Z" fill="#596775"/>
<path fill-rule="evenodd" clip-rule="evenodd" d="M173.853 133.705C173.263 134.794 173.428 136.185 174.349 137.106L171.3 140.156C170.378 139.235 168.988 139.07 167.898 139.66C168.375 141.942 170.402 143.663 172.824 143.663C175.599 143.663 177.856 141.405 177.856 138.631C177.856 136.208 176.136 134.181 173.853 133.705Z" fill="#35404A"/>
<path fill-rule="evenodd" clip-rule="evenodd" d="M174.981 138.631C174.981 139.822 174.015 140.788 172.824 140.788C171.634 140.788 170.668 139.822 170.668 138.631C170.668 137.44 171.634 136.474 172.824 136.474C174.015 136.474 174.981 137.44 174.981 138.631Z" fill="#E9E3D5"/>
</svg>
