<svg width="318" height="318" viewBox="0 0 318 318" fill="none" xmlns="http://www.w3.org/2000/svg">
<mask id="mask0_708_2265" style="mask-type:luminance" maskUnits="userSpaceOnUse" x="0" y="0" width="318" height="318">
<path fill-rule="evenodd" clip-rule="evenodd" d="M0 0.000152588H317.03V317.03H0V0.000152588Z" fill="white"/>
</mask>
<g mask="url(#mask0_708_2265)">
<path fill-rule="evenodd" clip-rule="evenodd" d="M158.515 0.000152588C70.9697 0.000152588 0 70.9699 0 158.515C0 246.06 70.9697 317.03 158.515 317.03C246.06 317.03 317.03 246.06 317.03 158.515C317.03 70.9699 246.06 0.000152588 158.515 0.000152588Z" fill="#EFF3F9"/>
</g>
<path fill-rule="evenodd" clip-rule="evenodd" d="M120.795 263.841C109.409 263.841 100.179 254.61 100.179 243.225C100.179 231.838 109.409 222.609 120.795 222.609C132.181 222.609 141.411 231.838 141.411 243.225C141.411 254.61 132.181 263.841 120.795 263.841Z" fill="white"/>
<path fill-rule="evenodd" clip-rule="evenodd" d="M79.1043 221.172C75.781 221.172 73.0872 218.478 73.0872 215.154C73.0872 211.83 75.781 209.135 79.1043 209.135C82.4285 209.135 85.1224 211.83 85.1224 215.154C85.1224 218.478 82.4285 221.172 79.1043 221.172Z" fill="white"/>
<path fill-rule="evenodd" clip-rule="evenodd" d="M177.797 251.245C175.582 251.245 173.787 249.449 173.787 247.234C173.787 245.02 175.582 243.225 177.797 243.225C180.011 243.225 181.806 245.02 181.806 247.234C181.806 249.449 180.011 251.245 177.797 251.245Z" fill="white"/>
<path fill-rule="evenodd" clip-rule="evenodd" d="M233.288 61.915C231.074 61.915 229.279 60.1201 229.279 57.9054C229.279 55.6908 231.074 53.8958 233.288 53.8958C235.503 53.8958 237.298 55.6908 237.298 57.9054C237.298 60.1201 235.503 61.915 233.288 61.915Z" fill="white"/>
<path fill-rule="evenodd" clip-rule="evenodd" d="M209.34 107.54H218.319V106.759C218.319 104.121 216.18 101.982 213.541 101.982H187.771C185.133 101.982 182.995 104.121 182.995 106.759V182.933H203.022V113.858C203.022 110.368 205.851 107.54 209.34 107.54Z" fill="#E0E8F6"/>
<mask id="mask1_708_2265" style="mask-type:luminance" maskUnits="userSpaceOnUse" x="0" y="0" width="318" height="318">
<path fill-rule="evenodd" clip-rule="evenodd" d="M0 317.03H317.03V0H0V317.03Z" fill="white"/>
</mask>
<g mask="url(#mask1_708_2265)">
<path fill-rule="evenodd" clip-rule="evenodd" d="M155.881 182.933H177.784V117.03H155.881V182.933Z" fill="#D0DBF0"/>
<path fill-rule="evenodd" clip-rule="evenodd" d="M210.276 98.3592H191.037C190.301 98.3592 189.706 97.7628 189.706 97.0279V89.2213C189.706 88.4864 190.301 87.8899 191.037 87.8899H210.276C211.012 87.8899 211.607 88.4864 211.607 89.2213V97.0279C211.607 97.7628 211.012 98.3592 210.276 98.3592Z" fill="#E0E8F6"/>
<path fill-rule="evenodd" clip-rule="evenodd" d="M151.137 182.933H106.547V70.7361C106.547 68.2741 108.861 66.4663 111.25 67.0628L148.267 76.297C149.954 76.7176 151.137 78.2322 151.137 79.9703V182.933Z" fill="#D0DBF0"/>
<path fill-rule="evenodd" clip-rule="evenodd" d="M86.7808 182.933V144.152C86.7808 140.674 89.5992 137.856 93.0774 137.856H100.221V182.933H86.7808Z" fill="#E0E8F6"/>
<path fill-rule="evenodd" clip-rule="evenodd" d="M199.075 175.552C198.151 175.552 197.403 174.804 197.403 173.88V115.012C197.403 114.088 198.151 113.339 199.075 113.339C199.999 113.339 200.747 114.088 200.747 115.012V173.88C200.747 174.804 199.999 175.552 199.075 175.552Z" fill="#C0CBE2"/>
<path fill-rule="evenodd" clip-rule="evenodd" d="M189.796 175.552C188.872 175.552 188.124 174.804 188.124 173.88V115.012C188.124 114.088 188.872 113.339 189.796 113.339C190.72 113.339 191.468 114.088 191.468 115.012V173.88C191.468 174.804 190.72 175.552 189.796 175.552Z" fill="#C0CBE2"/>
<path fill-rule="evenodd" clip-rule="evenodd" d="M142.681 93.1242H116.282C114.836 93.1242 113.665 91.9523 113.665 90.5073C113.665 89.0615 114.836 87.8896 116.282 87.8896H142.681C144.126 87.8896 145.297 89.0615 145.297 90.5073C145.297 91.9523 144.126 93.1242 142.681 93.1242Z" fill="#C1CAE7"/>
<path fill-rule="evenodd" clip-rule="evenodd" d="M142.681 104.599H116.282C114.836 104.599 113.665 103.427 113.665 101.982C113.665 100.536 114.836 99.3644 116.282 99.3644H142.681C144.126 99.3644 145.297 100.536 145.297 101.982C145.297 103.427 144.126 104.599 142.681 104.599Z" fill="#C1CAE7"/>
<path fill-rule="evenodd" clip-rule="evenodd" d="M142.681 116.073H116.282C114.836 116.073 113.665 114.902 113.665 113.457C113.665 112.011 114.836 110.839 116.282 110.839H142.681C144.126 110.839 145.297 112.011 145.297 113.457C145.297 114.902 144.126 116.073 142.681 116.073Z" fill="#C1CAE7"/>
<path fill-rule="evenodd" clip-rule="evenodd" d="M142.681 127.548H116.282C114.836 127.548 113.665 126.376 113.665 124.931C113.665 123.485 114.836 122.314 116.282 122.314H142.681C144.126 122.314 145.297 123.485 145.297 124.931C145.297 126.376 144.126 127.548 142.681 127.548Z" fill="#C1CAE7"/>
<path fill-rule="evenodd" clip-rule="evenodd" d="M142.681 139.023H116.282C114.836 139.023 113.665 137.851 113.665 136.406C113.665 134.96 114.836 133.788 116.282 133.788H142.681C144.126 133.788 145.297 134.96 145.297 136.406C145.297 137.851 144.126 139.023 142.681 139.023Z" fill="#C1CAE7"/>
<path fill-rule="evenodd" clip-rule="evenodd" d="M142.681 150.497H116.282C114.836 150.497 113.665 149.325 113.665 147.88C113.665 146.434 114.836 145.262 116.282 145.262H142.681C144.126 145.262 145.297 146.434 145.297 147.88C145.297 149.325 144.126 150.497 142.681 150.497Z" fill="#C1CAE7"/>
<path fill-rule="evenodd" clip-rule="evenodd" d="M142.681 161.972H116.282C114.836 161.972 113.665 160.8 113.665 159.355C113.665 157.909 114.836 156.737 116.282 156.737H142.681C144.126 156.737 145.297 157.909 145.297 159.355C145.297 160.8 144.126 161.972 142.681 161.972Z" fill="#C1CAE7"/>
<path fill-rule="evenodd" clip-rule="evenodd" d="M142.681 173.446H116.282C114.836 173.446 113.665 172.275 113.665 170.829C113.665 169.383 114.836 168.211 116.282 168.211H142.681C144.126 168.211 145.297 169.383 145.297 170.829C145.297 172.275 144.126 173.446 142.681 173.446Z" fill="#C1CAE7"/>
<path fill-rule="evenodd" clip-rule="evenodd" d="M76.4952 182.933H41.1711V113.25C41.1711 110.096 43.7275 107.54 46.8813 107.54H70.7859C73.9388 107.54 76.4952 110.096 76.4952 113.25V182.933Z" fill="#E0E8F6"/>
<path fill-rule="evenodd" clip-rule="evenodd" d="M69.8076 122.564H47.8601C46.6305 122.564 45.6345 121.568 45.6345 120.339V120.254C45.6345 119.025 46.6305 118.028 47.8601 118.028H69.8076C71.0363 118.028 72.0332 119.025 72.0332 120.254V120.339C72.0332 121.568 71.0363 122.564 69.8076 122.564Z" fill="#C1CAE7"/>
<path fill-rule="evenodd" clip-rule="evenodd" d="M69.8076 132.508H47.8601C46.6305 132.508 45.6345 131.511 45.6345 130.282V130.198C45.6345 128.968 46.6305 127.971 47.8601 127.971H69.8076C71.0363 127.971 72.0332 128.968 72.0332 130.198V130.282C72.0332 131.511 71.0363 132.508 69.8076 132.508Z" fill="#C1CAE7"/>
<path fill-rule="evenodd" clip-rule="evenodd" d="M69.8076 142.451H47.8601C46.6305 142.451 45.6345 141.454 45.6345 140.225V140.141C45.6345 138.912 46.6305 137.915 47.8601 137.915H69.8076C71.0363 137.915 72.0332 138.912 72.0332 140.141V140.225C72.0332 141.454 71.0363 142.451 69.8076 142.451Z" fill="#C1CAE7"/>
<path fill-rule="evenodd" clip-rule="evenodd" d="M69.8076 152.395H47.8601C46.6305 152.395 45.6345 151.398 45.6345 150.169V150.084C45.6345 148.855 46.6305 147.858 47.8601 147.858H69.8076C71.0363 147.858 72.0332 148.855 72.0332 150.084V150.169C72.0332 151.398 71.0363 152.395 69.8076 152.395Z" fill="#C1CAE7"/>
<path fill-rule="evenodd" clip-rule="evenodd" d="M69.8076 162.338H47.8601C46.6305 162.338 45.6345 161.341 45.6345 160.111V160.028C45.6345 158.798 46.6305 157.801 47.8601 157.801H69.8076C71.0363 157.801 72.0332 158.798 72.0332 160.028V160.111C72.0332 161.341 71.0363 162.338 69.8076 162.338Z" fill="#C1CAE7"/>
<path fill-rule="evenodd" clip-rule="evenodd" d="M69.8076 172.281H47.8601C46.6305 172.281 45.6345 171.284 45.6345 170.055V169.971C45.6345 168.741 46.6305 167.745 47.8601 167.745H69.8076C71.0363 167.745 72.0332 168.741 72.0332 169.971V170.055C72.0332 171.284 71.0363 172.281 69.8076 172.281Z" fill="#C1CAE7"/>
<path fill-rule="evenodd" clip-rule="evenodd" d="M248.396 186.097H205.158V117.021C205.158 113.532 207.986 110.703 211.475 110.703H242.078C245.568 110.703 248.396 113.532 248.396 117.021V186.097Z" fill="#E0E8F6"/>
<path fill-rule="evenodd" clip-rule="evenodd" d="M240.666 125.727H212.889C211.636 125.727 210.621 124.712 210.621 123.46C210.621 122.207 211.636 121.192 212.889 121.192H240.666C241.919 121.192 242.935 122.207 242.935 123.46C242.935 124.712 241.919 125.727 240.666 125.727Z" fill="#C1CAE7"/>
<path fill-rule="evenodd" clip-rule="evenodd" d="M240.666 135.671H212.889C211.636 135.671 210.621 134.656 210.621 133.403C210.621 132.15 211.636 131.134 212.889 131.134H240.666C241.919 131.134 242.935 132.15 242.935 133.403C242.935 134.656 241.919 135.671 240.666 135.671Z" fill="#C1CAE7"/>
<path fill-rule="evenodd" clip-rule="evenodd" d="M240.666 145.614H212.889C211.636 145.614 210.621 144.599 210.621 143.346C210.621 142.094 211.636 141.078 212.889 141.078H240.666C241.919 141.078 242.935 142.094 242.935 143.346C242.935 144.599 241.919 145.614 240.666 145.614Z" fill="#C1CAE7"/>
<path fill-rule="evenodd" clip-rule="evenodd" d="M97.5246 110.839C94.0638 110.839 91.2573 108.033 91.2573 104.573V93.0835H68.0601V103.564H74.1294C77.7478 103.564 80.6808 106.497 80.6808 110.115V182.933H84.1406V141.778C84.1406 137.937 87.2532 134.823 91.0933 134.823H100.22V110.839H97.5246Z" fill="#D0DBF0"/>
<path fill-rule="evenodd" clip-rule="evenodd" d="M206.931 81.1039H194.381C193.646 81.1039 193.051 80.5075 193.051 79.7726V73.5905C193.051 72.8557 193.646 72.2592 194.381 72.2592H206.931C207.667 72.2592 208.263 72.8557 208.263 73.5905V79.7726C208.263 80.5075 207.667 81.1039 206.931 81.1039Z" fill="#E0E8F6"/>
<path fill-rule="evenodd" clip-rule="evenodd" d="M203.023 69.7687H198.29V57.4696C198.29 56.9684 198.696 56.5616 199.197 56.5616H202.116C202.617 56.5616 203.023 56.9684 203.023 57.4696V69.7687Z" fill="#E0E8F6"/>
<path fill-rule="evenodd" clip-rule="evenodd" d="M214.76 194.532H75.591C73.6265 194.532 72.0322 192.939 72.0322 190.973C72.0322 189.008 73.6265 187.414 75.591 187.414H214.76C216.725 187.414 218.318 189.008 218.318 190.973C218.318 192.939 216.725 194.532 214.76 194.532Z" fill="#7E89A0"/>
<path fill-rule="evenodd" clip-rule="evenodd" d="M299.468 200.859C299.468 191.407 291.806 183.744 282.354 183.744H269.318H260.497H36.0418C33.3424 183.744 31.1544 181.557 31.1544 178.857C31.1544 176.158 33.3424 173.97 36.0418 173.97H37.4812V166.631H28.2342C18.782 166.631 11.1201 174.293 11.1201 183.744C11.1201 193.196 18.782 200.859 28.2342 200.859H265.239H277.466C280.166 200.859 282.354 203.047 282.354 205.745C282.354 208.445 280.166 210.633 277.466 210.633H268.316H244.259C242.231 210.633 240.588 212.276 240.588 214.303C240.588 216.33 242.231 217.973 244.259 217.973H282.556V217.963C291.914 217.853 299.468 210.242 299.468 200.859Z" fill="#919DB6"/>
<path fill-rule="evenodd" clip-rule="evenodd" d="M226.422 210.633H202.744C200.718 210.633 199.075 212.276 199.075 214.303C199.075 216.33 200.718 217.973 202.744 217.973H226.422C228.449 217.973 230.092 216.33 230.092 214.303C230.092 212.276 228.449 210.633 226.422 210.633Z" fill="#919DB6"/>
<path fill-rule="evenodd" clip-rule="evenodd" d="M187.374 263.603H121.931C112.359 263.603 104.599 255.843 104.599 246.271V83.9497C104.599 74.3774 112.359 66.6185 121.931 66.6185H187.374C196.946 66.6185 204.706 74.3774 204.706 83.9497V246.271C204.706 255.843 196.946 263.603 187.374 263.603Z" fill="#535565"/>
<path fill-rule="evenodd" clip-rule="evenodd" d="M183.629 258.527H125.676C116.838 258.527 109.675 251.363 109.675 242.526V87.6954C109.675 78.858 116.838 71.6946 125.676 71.6946H183.629C192.466 71.6946 199.63 78.858 199.63 87.6954V242.526C199.63 251.363 192.466 258.527 183.629 258.527Z" fill="#FFE3E0"/>
<path fill-rule="evenodd" clip-rule="evenodd" d="M183.629 258.527H125.676C116.838 258.527 109.675 251.363 109.675 242.526V87.6954C109.675 78.858 116.838 71.6946 125.676 71.6946H183.629C192.466 71.6946 199.63 78.858 199.63 87.6954V242.526C199.63 251.363 192.466 258.527 183.629 258.527Z" fill="#5470F2"/>
<path fill-rule="evenodd" clip-rule="evenodd" d="M169.095 78.7279H140.21C136.594 78.7279 133.662 75.7958 133.662 72.1802V69.2729H175.642V72.1802C175.642 75.7958 172.71 78.7279 169.095 78.7279Z" fill="#535565"/>
<path fill-rule="evenodd" clip-rule="evenodd" d="M181.454 232.234H127.851C125.65 232.234 123.866 230.367 123.866 228.064V172.949C123.866 170.646 125.65 168.778 127.851 168.778H181.454C183.654 168.778 185.438 170.646 185.438 172.949V228.064C185.438 230.367 183.654 232.234 181.454 232.234Z" fill="#E5E5E5"/>
<path fill-rule="evenodd" clip-rule="evenodd" d="M180.028 113.267H129.277C128.048 113.267 127.052 112.271 127.052 111.042C127.052 109.812 128.048 108.815 129.277 108.815H180.028C181.257 108.815 182.254 109.812 182.254 111.042C182.254 112.271 181.257 113.267 180.028 113.267Z" fill="white"/>
<path fill-rule="evenodd" clip-rule="evenodd" d="M169.044 123.592H140.26C139.032 123.592 138.035 122.596 138.035 121.367C138.035 120.137 139.032 119.14 140.26 119.14H169.044C170.274 119.14 171.271 120.137 171.271 121.367C171.271 122.596 170.274 123.592 169.044 123.592Z" fill="white"/>
<path fill-rule="evenodd" clip-rule="evenodd" d="M185.291 236.551H124.014C121.731 236.551 119.88 234.634 119.88 232.268V176.602C119.88 174.236 121.731 172.318 124.014 172.318H185.291C187.573 172.318 189.425 174.236 189.425 176.602V232.268C189.425 234.634 187.573 236.551 185.291 236.551Z" fill="#EEEEEE"/>
<path fill-rule="evenodd" clip-rule="evenodd" d="M188.892 239.728H120.413C118.067 239.728 116.166 237.827 116.166 235.481V179.742C116.166 177.397 118.067 175.495 120.413 175.495H188.892C191.238 175.495 193.139 177.397 193.139 179.742V235.481C193.139 237.827 191.238 239.728 188.892 239.728Z" fill="white"/>
<path fill-rule="evenodd" clip-rule="evenodd" d="M130.811 198.224C126.094 198.224 122.271 194.4 122.271 189.683C122.271 184.966 126.094 181.142 130.811 181.142C135.527 181.142 139.352 184.966 139.352 189.683C139.352 194.4 135.527 198.224 130.811 198.224Z" fill="#EFEFEF"/>
<path fill-rule="evenodd" clip-rule="evenodd" d="M178.562 187.671H145.74C144.959 187.671 144.328 187.04 144.328 186.259C144.328 185.48 144.959 184.848 145.74 184.848H178.562C179.342 184.848 179.973 185.48 179.973 186.259C179.973 187.04 179.342 187.671 178.562 187.671Z" fill="#EFEFEF"/>
<path fill-rule="evenodd" clip-rule="evenodd" d="M116.166 204.252H193.139V204.045H116.166V204.252Z" fill="#E2E2E2"/>
<path fill-rule="evenodd" clip-rule="evenodd" d="M184.418 232.051H126.271C124.695 232.051 123.417 230.773 123.417 229.197V222.69C123.417 221.113 124.695 219.836 126.271 219.836H184.418C185.995 219.836 187.272 221.113 187.272 222.69V229.197C187.272 230.773 185.995 232.051 184.418 232.051Z" fill="#5470F2"/>
</g>
<path d="M141.735 225.481C141.735 225.005 141.842 224.578 142.057 224.2C142.271 223.817 142.563 223.518 142.932 223.304C143.305 223.089 143.718 222.982 144.171 222.982C144.703 222.982 145.167 223.11 145.564 223.367C145.96 223.623 146.25 223.987 146.432 224.459H145.669C145.533 224.165 145.337 223.938 145.081 223.78C144.829 223.621 144.525 223.542 144.171 223.542C143.83 223.542 143.524 223.621 143.254 223.78C142.983 223.938 142.771 224.165 142.617 224.459C142.463 224.748 142.386 225.089 142.386 225.481C142.386 225.868 142.463 226.209 142.617 226.503C142.771 226.792 142.983 227.016 143.254 227.175C143.524 227.333 143.83 227.413 144.171 227.413C144.525 227.413 144.829 227.336 145.081 227.182C145.337 227.023 145.533 226.797 145.669 226.503H146.432C146.25 226.969 145.96 227.331 145.564 227.588C145.167 227.84 144.703 227.966 144.171 227.966C143.718 227.966 143.305 227.861 142.932 227.651C142.563 227.436 142.271 227.14 142.057 226.762C141.842 226.384 141.735 225.957 141.735 225.481ZM149.053 227.987C148.693 227.987 148.367 227.905 148.073 227.742C147.783 227.578 147.555 227.347 147.387 227.049C147.223 226.745 147.142 226.395 147.142 225.999C147.142 225.607 147.226 225.261 147.394 224.963C147.566 224.659 147.8 224.428 148.094 224.27C148.388 224.106 148.717 224.025 149.081 224.025C149.445 224.025 149.774 224.106 150.068 224.27C150.362 224.428 150.593 224.657 150.761 224.956C150.933 225.254 151.02 225.602 151.02 225.999C151.02 226.395 150.931 226.745 150.754 227.049C150.581 227.347 150.345 227.578 150.047 227.742C149.748 227.905 149.417 227.987 149.053 227.987ZM149.053 227.427C149.281 227.427 149.496 227.373 149.697 227.266C149.897 227.158 150.058 226.997 150.18 226.783C150.306 226.568 150.369 226.307 150.369 225.999C150.369 225.691 150.308 225.429 150.187 225.215C150.065 225 149.907 224.841 149.711 224.739C149.515 224.631 149.302 224.578 149.074 224.578C148.84 224.578 148.626 224.631 148.43 224.739C148.238 224.841 148.084 225 147.968 225.215C147.851 225.429 147.793 225.691 147.793 225.999C147.793 226.311 147.849 226.575 147.961 226.79C148.077 227.004 148.231 227.165 148.423 227.273C148.614 227.375 148.824 227.427 149.053 227.427ZM153.726 224.018C154.193 224.018 154.571 224.16 154.86 224.445C155.15 224.725 155.294 225.131 155.294 225.663V227.924H154.664V225.754C154.664 225.371 154.569 225.079 154.377 224.879C154.186 224.673 153.925 224.571 153.593 224.571C153.257 224.571 152.989 224.676 152.788 224.886C152.592 225.096 152.494 225.401 152.494 225.803V227.924H151.857V224.088H152.494V224.634C152.62 224.438 152.791 224.286 153.005 224.179C153.225 224.071 153.465 224.018 153.726 224.018ZM157.896 224.613H157.091V227.924H156.454V224.613H155.957V224.088H156.454V223.815C156.454 223.385 156.564 223.073 156.783 222.877C157.007 222.676 157.364 222.576 157.854 222.576V223.108C157.574 223.108 157.376 223.164 157.259 223.276C157.147 223.383 157.091 223.563 157.091 223.815V224.088H157.896V224.613ZM158.963 223.465C158.841 223.465 158.739 223.423 158.655 223.339C158.571 223.255 158.529 223.152 158.529 223.031C158.529 222.909 158.571 222.807 158.655 222.723C158.739 222.639 158.841 222.597 158.963 222.597C159.079 222.597 159.177 222.639 159.257 222.723C159.341 222.807 159.383 222.909 159.383 223.031C159.383 223.152 159.341 223.255 159.257 223.339C159.177 223.423 159.079 223.465 158.963 223.465ZM159.271 224.088V227.924H158.634V224.088H159.271ZM160.993 224.711C161.105 224.491 161.264 224.321 161.469 224.2C161.679 224.078 161.934 224.018 162.232 224.018V224.676H162.064C161.35 224.676 160.993 225.063 160.993 225.838V227.924H160.356V224.088H160.993V224.711ZM167.581 224.018C167.879 224.018 168.145 224.081 168.379 224.207C168.612 224.328 168.796 224.512 168.932 224.76C169.067 225.007 169.135 225.308 169.135 225.663V227.924H168.505V225.754C168.505 225.371 168.409 225.079 168.218 224.879C168.031 224.673 167.777 224.571 167.455 224.571C167.123 224.571 166.86 224.678 166.664 224.893C166.468 225.103 166.37 225.408 166.37 225.81V227.924H165.74V225.754C165.74 225.371 165.644 225.079 165.453 224.879C165.266 224.673 165.012 224.571 164.69 224.571C164.358 224.571 164.095 224.678 163.899 224.893C163.703 225.103 163.605 225.408 163.605 225.81V227.924H162.968V224.088H163.605V224.641C163.731 224.44 163.899 224.286 164.109 224.179C164.323 224.071 164.559 224.018 164.816 224.018C165.138 224.018 165.422 224.09 165.67 224.235C165.917 224.379 166.101 224.592 166.223 224.872C166.33 224.601 166.507 224.391 166.755 224.242C167.002 224.092 167.277 224.018 167.581 224.018Z" fill="white"/>
<path fill-rule="evenodd" clip-rule="evenodd" d="M148.561 193.167C148.651 193.077 148.682 192.945 148.644 192.822C148.605 192.698 148.504 192.611 148.383 192.593L147.311 192.43C147.29 192.427 147.272 192.413 147.263 192.393L146.783 191.38C146.728 191.264 146.618 191.193 146.493 191.193C146.369 191.193 146.258 191.264 146.204 191.38L145.724 192.393C145.716 192.413 145.697 192.427 145.677 192.43L144.605 192.593C144.482 192.612 144.382 192.699 144.343 192.822C144.305 192.945 144.337 193.077 144.425 193.167L145.201 193.956C145.217 193.972 145.223 193.994 145.22 194.016L145.036 195.13C145.015 195.256 145.065 195.383 145.164 195.459C145.264 195.535 145.395 195.545 145.504 195.484L146.464 194.959C146.482 194.948 146.505 194.948 146.523 194.959L147.482 195.484C147.529 195.511 147.582 195.523 147.632 195.523C147.7 195.523 147.766 195.502 147.822 195.459C147.922 195.383 147.971 195.256 147.951 195.13L147.768 194.016C147.764 193.994 147.771 193.972 147.786 193.955L148.561 193.167Z" fill="#FFD400"/>
<path fill-rule="evenodd" clip-rule="evenodd" d="M153.696 193.167C153.786 193.077 153.817 192.945 153.779 192.822C153.74 192.698 153.639 192.611 153.519 192.593L152.447 192.43C152.425 192.427 152.407 192.413 152.398 192.393L151.919 191.381C151.864 191.264 151.753 191.193 151.628 191.193C151.505 191.193 151.394 191.264 151.34 191.381L150.86 192.393C150.85 192.413 150.832 192.427 150.812 192.43L149.74 192.593C149.617 192.612 149.517 192.699 149.479 192.822C149.44 192.945 149.472 193.077 149.56 193.167L150.336 193.956C150.352 193.972 150.358 193.994 150.356 194.016L150.171 195.13C150.15 195.256 150.201 195.383 150.3 195.459C150.4 195.535 150.531 195.545 150.64 195.484L151.599 194.959C151.617 194.948 151.64 194.948 151.659 194.959L152.617 195.484C152.665 195.511 152.717 195.523 152.767 195.523C152.835 195.523 152.901 195.502 152.957 195.459C153.058 195.383 153.106 195.256 153.086 195.13L152.903 194.016C152.899 193.994 152.906 193.972 152.921 193.955L153.696 193.167Z" fill="#FFD400"/>
<path fill-rule="evenodd" clip-rule="evenodd" d="M159.216 193.167C159.306 193.077 159.337 192.945 159.299 192.822C159.26 192.698 159.16 192.611 159.039 192.593L157.967 192.43C157.945 192.427 157.927 192.413 157.918 192.393L157.439 191.381C157.384 191.264 157.273 191.193 157.148 191.193C157.025 191.193 156.914 191.264 156.86 191.381L156.38 192.393C156.371 192.413 156.352 192.427 156.332 192.43L155.26 192.593C155.137 192.612 155.037 192.699 154.999 192.822C154.96 192.945 154.992 193.077 155.08 193.167L155.856 193.956C155.872 193.972 155.878 193.994 155.876 194.016L155.691 195.13C155.67 195.256 155.721 195.383 155.82 195.459C155.92 195.535 156.051 195.545 156.16 195.484L157.119 194.959C157.137 194.948 157.16 194.948 157.179 194.959L158.137 195.484C158.185 195.511 158.237 195.523 158.287 195.523C158.355 195.523 158.421 195.502 158.477 195.459C158.578 195.383 158.626 195.256 158.606 195.13L158.423 194.016C158.419 193.994 158.426 193.972 158.441 193.955L159.216 193.167Z" fill="#FFD400"/>
<path fill-rule="evenodd" clip-rule="evenodd" d="M164.351 193.167C164.44 193.077 164.471 192.945 164.433 192.822C164.395 192.698 164.295 192.611 164.173 192.593L163.102 192.43C163.08 192.427 163.062 192.413 163.052 192.393L162.574 191.381C162.518 191.264 162.407 191.193 162.283 191.193C162.159 191.193 162.048 191.264 161.994 191.381L161.515 192.393C161.505 192.413 161.487 192.427 161.466 192.43L160.395 192.593C160.272 192.612 160.171 192.699 160.133 192.822C160.095 192.945 160.127 193.077 160.215 193.167L160.991 193.956C161.006 193.972 161.013 193.994 161.01 194.016L160.826 195.13C160.805 195.256 160.855 195.383 160.955 195.459C161.055 195.535 161.186 195.545 161.295 195.484L162.253 194.959C162.271 194.948 162.294 194.948 162.313 194.959L163.271 195.484C163.32 195.511 163.371 195.523 163.422 195.523C163.489 195.523 163.555 195.502 163.612 195.459C163.713 195.383 163.761 195.256 163.74 195.13L163.558 194.016C163.554 193.994 163.561 193.972 163.575 193.955L164.351 193.167Z" fill="#FFD400"/>
<path fill-rule="evenodd" clip-rule="evenodd" d="M169.641 193.167C169.73 193.077 169.761 192.945 169.722 192.822C169.684 192.698 169.584 192.611 169.462 192.593L168.39 192.43C168.369 192.427 168.351 192.413 168.341 192.393L167.863 191.381C167.807 191.264 167.696 191.193 167.573 191.193C167.448 191.193 167.337 191.264 167.283 191.381L166.803 192.393C166.795 192.413 166.775 192.427 166.755 192.43L165.684 192.593C165.561 192.612 165.461 192.699 165.422 192.822C165.385 192.945 165.416 193.077 165.505 193.167L166.28 193.956C166.295 193.972 166.302 193.994 166.299 194.016L166.115 195.13C166.095 195.256 166.144 195.383 166.244 195.459C166.344 195.535 166.474 195.545 166.584 195.484L167.542 194.959C167.561 194.948 167.584 194.948 167.602 194.959L168.56 195.484C168.609 195.511 168.66 195.523 168.712 195.523C168.778 195.523 168.844 195.502 168.901 195.459C169.001 195.383 169.051 195.256 169.029 195.13L168.847 194.016C168.843 193.994 168.85 193.972 168.865 193.955L169.641 193.167Z" fill="#FFD400"/>
</svg>
