<svg width="318" height="318" viewBox="0 0 318 318" fill="none" xmlns="http://www.w3.org/2000/svg">
<mask id="mask0_708_2058" style="mask-type:luminance" maskUnits="userSpaceOnUse" x="0" y="0" width="318" height="318">
<path fill-rule="evenodd" clip-rule="evenodd" d="M0 0.000152588H317.03V317.03H0V0.000152588Z" fill="white"/>
</mask>
<g mask="url(#mask0_708_2058)">
<path fill-rule="evenodd" clip-rule="evenodd" d="M158.515 0.000152588C70.9697 0.000152588 0 70.9699 0 158.515C0 246.06 70.9697 317.03 158.515 317.03C246.06 317.03 317.03 246.06 317.03 158.515C317.03 70.9699 246.06 0.000152588 158.515 0.000152588Z" fill="#EFF3F9"/>
</g>
<path fill-rule="evenodd" clip-rule="evenodd" d="M120.795 263.841C109.409 263.841 100.179 254.61 100.179 243.225C100.179 231.838 109.409 222.609 120.795 222.609C132.181 222.609 141.411 231.838 141.411 243.225C141.411 254.61 132.181 263.841 120.795 263.841Z" fill="white"/>
<path fill-rule="evenodd" clip-rule="evenodd" d="M79.1047 221.172C75.7814 221.172 73.0867 218.478 73.0867 215.154C73.0867 211.83 75.7814 209.135 79.1047 209.135C82.428 209.135 85.1228 211.83 85.1228 215.154C85.1228 218.478 82.428 221.172 79.1047 221.172Z" fill="white"/>
<path fill-rule="evenodd" clip-rule="evenodd" d="M177.796 251.245C175.582 251.245 173.787 249.449 173.787 247.234C173.787 245.02 175.582 243.225 177.796 243.225C180.011 243.225 181.806 245.02 181.806 247.234C181.806 249.449 180.011 251.245 177.796 251.245Z" fill="white"/>
<path fill-rule="evenodd" clip-rule="evenodd" d="M233.288 61.915C231.074 61.915 229.279 60.1201 229.279 57.9054C229.279 55.6908 231.074 53.8958 233.288 53.8958C235.503 53.8958 237.298 55.6908 237.298 57.9054C237.298 60.1201 235.503 61.915 233.288 61.915Z" fill="white"/>
<path fill-rule="evenodd" clip-rule="evenodd" d="M215.332 98.3462H224.31V97.5647C224.31 94.9267 222.172 92.7881 219.533 92.7881H193.763C191.125 92.7881 188.986 94.9267 188.986 97.5647V173.74H209.014V104.664C209.014 101.175 211.842 98.3462 215.332 98.3462Z" fill="#E0E8F6"/>
<mask id="mask1_708_2058" style="mask-type:luminance" maskUnits="userSpaceOnUse" x="0" y="0" width="318" height="318">
<path fill-rule="evenodd" clip-rule="evenodd" d="M0 317.03H317.03V0H0V317.03Z" fill="white"/>
</mask>
<g mask="url(#mask1_708_2058)">
<path fill-rule="evenodd" clip-rule="evenodd" d="M161.873 173.74H183.776V107.837H161.873V173.74Z" fill="#D0DBF0"/>
<path fill-rule="evenodd" clip-rule="evenodd" d="M216.268 89.1652H197.029C196.293 89.1652 195.697 88.5696 195.697 87.8339V80.0272C195.697 79.2924 196.293 78.6959 197.029 78.6959H216.268C217.003 78.6959 217.599 79.2924 217.599 80.0272V87.8339C217.599 88.5696 217.003 89.1652 216.268 89.1652Z" fill="#E0E8F6"/>
<path fill-rule="evenodd" clip-rule="evenodd" d="M157.128 173.739H112.539V61.5421C112.539 59.0801 114.852 57.2732 117.241 57.8688L154.259 67.103C155.945 67.5235 157.128 69.0381 157.128 70.7763V173.739Z" fill="#D0DBF0"/>
<path fill-rule="evenodd" clip-rule="evenodd" d="M92.772 173.739V134.958C92.772 131.481 95.5913 128.662 99.0695 128.662H106.212V173.739H92.772Z" fill="#E0E8F6"/>
<path fill-rule="evenodd" clip-rule="evenodd" d="M205.066 166.358C204.143 166.358 203.394 165.61 203.394 164.686V105.818C203.394 104.894 204.143 104.146 205.066 104.146C205.99 104.146 206.738 104.894 206.738 105.818V164.686C206.738 165.61 205.99 166.358 205.066 166.358Z" fill="#C0CBE2"/>
<path fill-rule="evenodd" clip-rule="evenodd" d="M195.787 166.358C194.864 166.358 194.115 165.61 194.115 164.686V105.818C194.115 104.894 194.864 104.146 195.787 104.146C196.711 104.146 197.46 104.894 197.46 105.818V164.686C197.46 165.61 196.711 166.358 195.787 166.358Z" fill="#C0CBE2"/>
<path fill-rule="evenodd" clip-rule="evenodd" d="M148.672 83.9307H122.273C120.828 83.9307 119.656 82.7587 119.656 81.3138C119.656 79.8679 120.828 78.696 122.273 78.696H148.672C150.117 78.696 151.289 79.8679 151.289 81.3138C151.289 82.7587 150.117 83.9307 148.672 83.9307Z" fill="#C1CAE7"/>
<path fill-rule="evenodd" clip-rule="evenodd" d="M148.672 95.405H122.273C120.828 95.405 119.656 94.2331 119.656 92.7881C119.656 91.3423 120.828 90.1703 122.273 90.1703H148.672C150.117 90.1703 151.289 91.3423 151.289 92.7881C151.289 94.2331 150.117 95.405 148.672 95.405Z" fill="#C1CAE7"/>
<path fill-rule="evenodd" clip-rule="evenodd" d="M148.672 106.88H122.273C120.828 106.88 119.656 105.708 119.656 104.262C119.656 102.817 120.828 101.645 122.273 101.645H148.672C150.117 101.645 151.289 102.817 151.289 104.262C151.289 105.708 150.117 106.88 148.672 106.88Z" fill="#C1CAE7"/>
<path fill-rule="evenodd" clip-rule="evenodd" d="M148.672 118.354H122.273C120.828 118.354 119.656 117.182 119.656 115.737C119.656 114.292 120.828 113.12 122.273 113.12H148.672C150.117 113.12 151.289 114.292 151.289 115.737C151.289 117.182 150.117 118.354 148.672 118.354Z" fill="#C1CAE7"/>
<path fill-rule="evenodd" clip-rule="evenodd" d="M148.672 129.829H122.273C120.828 129.829 119.656 128.657 119.656 127.212C119.656 125.766 120.828 124.594 122.273 124.594H148.672C150.117 124.594 151.289 125.766 151.289 127.212C151.289 128.657 150.117 129.829 148.672 129.829Z" fill="#C1CAE7"/>
<path fill-rule="evenodd" clip-rule="evenodd" d="M148.672 141.304H122.273C120.828 141.304 119.656 140.132 119.656 138.686C119.656 137.241 120.828 136.069 122.273 136.069H148.672C150.117 136.069 151.289 137.241 151.289 138.686C151.289 140.132 150.117 141.304 148.672 141.304Z" fill="#C1CAE7"/>
<path fill-rule="evenodd" clip-rule="evenodd" d="M148.672 152.778H122.273C120.828 152.778 119.656 151.606 119.656 150.161C119.656 148.715 120.828 147.543 122.273 147.543H148.672C150.117 147.543 151.289 148.715 151.289 150.161C151.289 151.606 150.117 152.778 148.672 152.778Z" fill="#C1CAE7"/>
<path fill-rule="evenodd" clip-rule="evenodd" d="M148.672 164.253H122.273C120.828 164.253 119.656 163.081 119.656 161.636C119.656 160.189 120.828 159.018 122.273 159.018H148.672C150.117 159.018 151.289 160.189 151.289 161.636C151.289 163.081 150.117 164.253 148.672 164.253Z" fill="#C1CAE7"/>
<path fill-rule="evenodd" clip-rule="evenodd" d="M82.4871 173.739H47.1631V104.056C47.1631 100.902 49.7195 98.346 52.8733 98.346H76.7769C79.9307 98.346 82.4871 100.902 82.4871 104.056V173.739Z" fill="#E0E8F6"/>
<path fill-rule="evenodd" clip-rule="evenodd" d="M75.7983 113.37H53.8509C52.6221 113.37 51.6252 112.374 51.6252 111.145V111.06C51.6252 109.831 52.6221 108.834 53.8509 108.834H75.7983C77.0279 108.834 78.0239 109.831 78.0239 111.06V111.145C78.0239 112.374 77.0279 113.37 75.7983 113.37Z" fill="#C1CAE7"/>
<path fill-rule="evenodd" clip-rule="evenodd" d="M75.7983 123.314H53.8509C52.6221 123.314 51.6252 122.318 51.6252 121.088V121.004C51.6252 119.774 52.6221 118.777 53.8509 118.777H75.7983C77.0279 118.777 78.0239 119.774 78.0239 121.004V121.088C78.0239 122.318 77.0279 123.314 75.7983 123.314Z" fill="#C1CAE7"/>
<path fill-rule="evenodd" clip-rule="evenodd" d="M75.7983 133.257H53.8509C52.6221 133.257 51.6252 132.261 51.6252 131.032V130.947C51.6252 129.718 52.6221 128.721 53.8509 128.721H75.7983C77.0279 128.721 78.0239 129.718 78.0239 130.947V131.032C78.0239 132.261 77.0279 133.257 75.7983 133.257Z" fill="#C1CAE7"/>
<path fill-rule="evenodd" clip-rule="evenodd" d="M75.7983 143.201H53.8509C52.6221 143.201 51.6252 142.205 51.6252 140.975V140.891C51.6252 139.661 52.6221 138.664 53.8509 138.664H75.7983C77.0279 138.664 78.0239 139.661 78.0239 140.891V140.975C78.0239 142.205 77.0279 143.201 75.7983 143.201Z" fill="#C1CAE7"/>
<path fill-rule="evenodd" clip-rule="evenodd" d="M75.7983 153.144H53.8509C52.6221 153.144 51.6252 152.147 51.6252 150.918V150.834C51.6252 149.604 52.6221 148.608 53.8509 148.608H75.7983C77.0279 148.608 78.0239 149.604 78.0239 150.834V150.918C78.0239 152.147 77.0279 153.144 75.7983 153.144Z" fill="#C1CAE7"/>
<path fill-rule="evenodd" clip-rule="evenodd" d="M75.7983 163.087H53.8509C52.6221 163.087 51.6252 162.091 51.6252 160.861V160.777C51.6252 159.548 52.6221 158.551 53.8509 158.551H75.7983C77.0279 158.551 78.0239 159.548 78.0239 160.777V160.861C78.0239 162.091 77.0279 163.087 75.7983 163.087Z" fill="#C1CAE7"/>
<path fill-rule="evenodd" clip-rule="evenodd" d="M254.388 176.903H211.15V107.827C211.15 104.338 213.977 101.51 217.466 101.51H248.07C251.559 101.51 254.388 104.338 254.388 107.827V176.903Z" fill="#E0E8F6"/>
<path fill-rule="evenodd" clip-rule="evenodd" d="M246.657 116.534H218.88C217.627 116.534 216.612 115.519 216.612 114.265C216.612 113.014 217.627 111.997 218.88 111.997H246.657C247.91 111.997 248.926 113.014 248.926 114.265C248.926 115.519 247.91 116.534 246.657 116.534Z" fill="#C1CAE7"/>
<path fill-rule="evenodd" clip-rule="evenodd" d="M246.657 126.477H218.88C217.627 126.477 216.612 125.462 216.612 124.209C216.612 122.956 217.627 121.941 218.88 121.941H246.657C247.91 121.941 248.926 122.956 248.926 124.209C248.926 125.462 247.91 126.477 246.657 126.477Z" fill="#C1CAE7"/>
<path fill-rule="evenodd" clip-rule="evenodd" d="M246.657 136.421H218.88C217.627 136.421 216.612 135.405 216.612 134.152C216.612 132.899 217.627 131.884 218.88 131.884H246.657C247.91 131.884 248.926 132.899 248.926 134.152C248.926 135.405 247.91 136.421 246.657 136.421Z" fill="#C1CAE7"/>
<path fill-rule="evenodd" clip-rule="evenodd" d="M103.516 101.645C100.055 101.645 97.2494 98.8393 97.2494 95.3785V83.8894H74.0513V94.3697H80.1216C83.7399 94.3697 86.6729 97.3027 86.6729 100.921V173.74H90.1318V132.584C90.1318 128.743 93.2453 125.63 97.0854 125.63H106.212V101.645H103.516Z" fill="#D0DBF0"/>
<path fill-rule="evenodd" clip-rule="evenodd" d="M212.923 71.9099H200.372C199.638 71.9099 199.041 71.3143 199.041 70.5786V64.3974C199.041 63.6616 199.638 63.0661 200.372 63.0661H212.923C213.658 63.0661 214.254 63.6616 214.254 64.3974V70.5786C214.254 71.3143 213.658 71.9099 212.923 71.9099Z" fill="#E0E8F6"/>
<path fill-rule="evenodd" clip-rule="evenodd" d="M209.014 60.5746H204.282V48.2755C204.282 47.7743 204.688 47.3675 205.189 47.3675H208.107C208.608 47.3675 209.014 47.7743 209.014 48.2755V60.5746Z" fill="#E0E8F6"/>
<path fill-rule="evenodd" clip-rule="evenodd" d="M220.751 185.338H81.5827C79.6173 185.338 78.0239 183.745 78.0239 181.779C78.0239 179.815 79.6173 178.22 81.5827 178.22H220.751C222.717 178.22 224.31 179.815 224.31 181.779C224.31 183.745 222.717 185.338 220.751 185.338Z" fill="#7E89A0"/>
<path fill-rule="evenodd" clip-rule="evenodd" d="M305.459 191.665C305.459 182.214 297.797 174.55 288.345 174.55H275.309H266.488H42.033C39.3336 174.55 37.1456 172.363 37.1456 169.663C37.1456 166.964 39.3336 164.776 42.033 164.776H43.4724V157.437H34.2254C24.7741 157.437 17.1113 165.099 17.1113 174.55C17.1113 184.003 24.7741 191.665 34.2254 191.665H271.231H283.457C286.158 191.665 288.345 193.853 288.345 196.551C288.345 199.251 286.158 201.439 283.457 201.439H274.308H250.25C248.222 201.439 246.579 203.083 246.579 205.109C246.579 207.136 248.222 208.779 250.25 208.779H288.547V208.769C297.905 208.659 305.459 201.048 305.459 191.665Z" fill="#919DB6"/>
<path fill-rule="evenodd" clip-rule="evenodd" d="M232.413 201.439H208.736C206.709 201.439 205.066 203.083 205.066 205.109C205.066 207.136 206.709 208.779 208.736 208.779H232.413C234.44 208.779 236.083 207.136 236.083 205.109C236.083 203.083 234.44 201.439 232.413 201.439Z" fill="#919DB6"/>
<path fill-rule="evenodd" clip-rule="evenodd" d="M216.023 129.724V134.962H220.858V132.142C220.858 130.139 219.234 128.515 217.232 128.515C216.564 128.515 216.023 129.056 216.023 129.724Z" fill="#E9E3D5"/>
<path fill-rule="evenodd" clip-rule="evenodd" d="M251.548 167.507C250.971 166.937 250.675 166.141 250.675 165.33V157.526C250.675 154.389 249.658 151.335 247.774 148.824L239.071 137.219C237.244 134.783 234.378 133.35 231.334 133.35H207.878C204.438 133.35 201.257 135.177 199.524 138.148L191.041 152.692L180.882 153.91C180.571 153.946 180.263 153.999 179.96 154.065L172.345 163.432V172.033C172.345 174.704 174.509 176.868 177.18 176.868H247.613C250.283 176.868 252.447 174.704 252.447 172.033V169.66C252.447 168.851 252.124 168.075 251.548 167.507Z" fill="#FFB545"/>
<path fill-rule="evenodd" clip-rule="evenodd" d="M251.551 167.509C250.972 166.939 250.675 166.142 250.675 165.33V162.362V157.526C250.675 154.514 249.718 151.416 247.774 148.824L239.071 137.219C238.074 135.89 236.767 134.863 235.292 134.2C233.948 135.88 233.851 138.318 235.202 140.12L240.823 147.614L235.854 152.692H240.974C243.629 152.692 245.825 154.82 245.84 157.476V157.526V165.33V165.362C245.844 166.242 244.85 166.768 244.148 166.239C241.925 164.564 239.161 163.571 236.17 163.571C230.543 163.571 225.724 167.085 223.785 172.033H220.859V138.186H216.024V172.033H196.717C194.848 167.767 190.589 164.779 185.641 164.779C180.696 164.779 176.439 167.768 174.571 172.033H172.345C172.345 174.704 174.509 176.868 177.18 176.868H247.613C250.283 176.868 252.448 174.704 252.448 172.033V169.752C252.448 168.917 252.145 168.095 251.551 167.509Z" fill="#FF7E40"/>
<path fill-rule="evenodd" clip-rule="evenodd" d="M206.273 158.736H211.107C211.775 158.736 212.316 158.195 212.316 157.528C212.316 156.86 211.775 156.318 211.107 156.318H206.273C205.605 156.318 205.064 156.86 205.064 157.528C205.064 158.195 205.605 158.736 206.273 158.736Z" fill="#35404A"/>
<path fill-rule="evenodd" clip-rule="evenodd" d="M225.613 158.736H230.448C231.116 158.736 231.657 158.195 231.657 157.528C231.657 156.86 231.116 156.318 230.448 156.318H225.613C224.945 156.318 224.404 156.86 224.404 157.528C224.404 158.195 224.945 158.736 225.613 158.736Z" fill="#35404A"/>
<path fill-rule="evenodd" clip-rule="evenodd" d="M203.701 140.584L196.638 152.692H216.023V138.185H207.878C206.164 138.185 204.564 139.104 203.701 140.584Z" fill="#87F8F4"/>
<path fill-rule="evenodd" clip-rule="evenodd" d="M240.279 146.889L235.202 140.12C234.29 138.901 232.856 138.186 231.334 138.186H220.858V152.692H237.377C239.381 152.692 241.004 151.068 241.004 149.065C241.004 148.28 240.75 147.517 240.279 146.889Z" fill="#87F8F4"/>
<path fill-rule="evenodd" clip-rule="evenodd" d="M246.646 157.528C245.311 157.528 244.228 158.61 244.228 159.946C244.228 161.28 245.311 162.363 246.646 162.363H250.675V157.528H246.646Z" fill="#C5324F"/>
<path fill-rule="evenodd" clip-rule="evenodd" d="M173.669 158.549C173.66 158.562 173.653 158.576 173.646 158.59C173.561 158.735 173.48 158.884 173.403 159.035C172.724 160.364 172.345 161.862 172.345 163.431H175.125C177.796 163.431 179.96 161.266 179.96 158.595V154.064C177.338 154.631 175.032 156.237 173.669 158.549Z" fill="#E9E3D5"/>
<path fill-rule="evenodd" clip-rule="evenodd" d="M185.641 185.33C180.975 185.33 177.18 181.534 177.18 176.868C177.18 172.202 180.975 168.406 185.641 168.406C190.308 168.406 194.103 172.202 194.103 176.868C194.103 181.534 190.308 185.33 185.641 185.33Z" fill="#596775"/>
<path fill-rule="evenodd" clip-rule="evenodd" d="M187.372 168.584C186.38 170.417 186.657 172.755 188.206 174.304L183.077 179.432C181.529 177.883 179.19 177.606 177.358 178.597C178.159 182.436 181.569 185.329 185.641 185.329C190.308 185.329 194.104 181.533 194.104 176.868C194.104 172.795 191.209 169.386 187.372 168.584Z" fill="#35404A"/>
<path fill-rule="evenodd" clip-rule="evenodd" d="M189.268 176.868C189.268 178.872 187.645 180.494 185.641 180.494C183.638 180.494 182.016 178.872 182.016 176.868C182.016 174.865 183.638 173.242 185.641 173.242C187.645 173.242 189.268 174.865 189.268 176.868Z" fill="#E9E3D5"/>
<path fill-rule="evenodd" clip-rule="evenodd" d="M236.17 185.33C231.504 185.33 227.709 181.534 227.709 176.868C227.709 172.202 231.504 168.406 236.17 168.406C240.836 168.406 244.631 172.202 244.631 176.868C244.631 181.534 240.836 185.33 236.17 185.33Z" fill="#596775"/>
<path fill-rule="evenodd" clip-rule="evenodd" d="M237.9 168.584C236.908 170.417 237.185 172.755 238.734 174.304L233.604 179.432C232.057 177.883 229.719 177.606 227.886 178.597C228.687 182.436 232.097 185.329 236.169 185.329C240.836 185.329 244.632 181.533 244.632 176.868C244.632 172.795 241.738 169.386 237.9 168.584Z" fill="#35404A"/>
<path fill-rule="evenodd" clip-rule="evenodd" d="M239.796 176.868C239.796 178.872 238.173 180.494 236.17 180.494C234.167 180.494 232.543 178.872 232.543 176.868C232.543 174.865 234.167 173.242 236.17 173.242C238.173 173.242 239.796 174.865 239.796 176.868Z" fill="#E9E3D5"/>
</g>
<mask id="mask2_708_2058" style="mask-type:luminance" maskUnits="userSpaceOnUse" x="0" y="0" width="318" height="318">
<path fill-rule="evenodd" clip-rule="evenodd" d="M158.515 0C70.9697 0 0 70.9688 0 158.515C0 246.061 70.9697 317.03 158.515 317.03C246.06 317.03 317.03 246.061 317.03 158.515" fill="white"/>
</mask>
<g mask="url(#mask2_708_2058)">
<path fill-rule="evenodd" clip-rule="evenodd" d="M162.209 153.811L149.369 164.59C147.187 166.421 143.933 166.136 142.102 163.955C140.271 161.772 140.554 158.519 142.737 156.688L156.823 144.863C158.317 143.61 160.544 143.804 161.799 145.298L162.843 146.544C164.675 148.725 164.392 151.979 162.209 153.811Z" fill="#DBAA79"/>
</g>
<mask id="mask3_708_2058" style="mask-type:luminance" maskUnits="userSpaceOnUse" x="0" y="0" width="318" height="318">
<path fill-rule="evenodd" clip-rule="evenodd" d="M158.515 0C70.9697 0 0 70.9688 0 158.515C0 246.061 70.9697 317.03 158.515 317.03C246.06 317.03 317.03 246.061 317.03 158.515" fill="white"/>
</mask>
<g mask="url(#mask3_708_2058)">
<path fill-rule="evenodd" clip-rule="evenodd" d="M161.756 151.535L147.206 163.748C145.496 165.184 142.946 164.961 141.511 163.251L141.06 162.713C139.624 161.003 139.847 158.453 141.556 157.017L156.107 144.804C157.816 143.368 160.366 143.592 161.801 145.302L162.254 145.84C163.689 147.55 163.466 150.1 161.756 151.535Z" fill="#EAC897"/>
</g>
<mask id="mask4_708_2058" style="mask-type:luminance" maskUnits="userSpaceOnUse" x="0" y="0" width="318" height="318">
<path fill-rule="evenodd" clip-rule="evenodd" d="M158.515 0C70.9697 0 0 70.9688 0 158.515C0 246.061 70.9697 317.03 158.515 317.03C246.06 317.03 317.03 246.061 317.03 158.515C317.03 70.9688 246.06 0 158.515 0Z" fill="white"/>
</mask>
<g mask="url(#mask4_708_2058)">
<path fill-rule="evenodd" clip-rule="evenodd" d="M110.167 205.099C109.975 205.872 107.851 244.098 108.43 244.29C109.009 244.483 138.547 228.266 138.547 228.266L142.022 208.381L110.167 205.099Z" fill="#DBAA79"/>
</g>
<mask id="mask5_708_2058" style="mask-type:luminance" maskUnits="userSpaceOnUse" x="0" y="0" width="318" height="318">
<path fill-rule="evenodd" clip-rule="evenodd" d="M158.515 0C70.9697 0 0 70.9688 0 158.515C0 246.061 70.9697 317.03 158.515 317.03C246.06 317.03 317.03 246.061 317.03 158.515C317.03 70.9688 246.06 0 158.515 0Z" fill="white"/>
</mask>
<g mask="url(#mask5_708_2058)">
<path fill-rule="evenodd" clip-rule="evenodd" d="M149.938 202.396C148.972 204.712 147.56 226.925 137.196 239.077C125.176 253.171 117.118 252.012 115.379 252.399C114.61 253.938 113.232 256.391 111.787 258.892C109.147 263.463 104.469 266.523 99.2128 267.012C98.5494 267.073 97.8265 267.156 97.0394 267.264C90.7859 268.127 90.2819 271.319 85.8417 273.829C81.4014 276.338 76.3821 279.813 69.4313 276.338C61.4863 272.365 55.1448 279.813 55.1448 279.813L83.332 230.777C83.332 230.777 82.1729 198.148 87.7722 188.689C93.3707 179.229 111.325 161.467 111.325 161.467C111.325 161.467 123.488 171.7 103.41 187.144C103.41 193.322 103.024 197.956 103.024 197.956C103.024 197.956 118.276 202.396 113.642 235.795C123.681 235.795 132.176 233.479 134.879 224.213C137.582 217.648 139.319 214.752 139.319 214.752C137.003 214.752 141.249 163.205 141.249 163.205L149.938 202.396Z" fill="#EAC897"/>
</g>
<mask id="mask6_708_2058" style="mask-type:luminance" maskUnits="userSpaceOnUse" x="0" y="0" width="318" height="318">
<path fill-rule="evenodd" clip-rule="evenodd" d="M158.515 0C70.9697 0 0 70.9688 0 158.515C0 246.061 70.9697 317.03 158.515 317.03C246.06 317.03 317.03 246.061 317.03 158.515" fill="white"/>
</mask>
<g mask="url(#mask6_708_2058)">
<path fill-rule="evenodd" clip-rule="evenodd" d="M142.52 224.247H107.488C102.364 224.247 98.2107 220.094 98.2107 214.969V128.079C98.2107 122.956 102.364 118.802 107.488 118.802H142.52C147.643 118.802 151.797 122.956 151.797 128.079V214.969C151.797 220.094 147.643 224.247 142.52 224.247Z" fill="#535565"/>
</g>
<mask id="mask7_708_2058" style="mask-type:luminance" maskUnits="userSpaceOnUse" x="0" y="0" width="318" height="318">
<path fill-rule="evenodd" clip-rule="evenodd" d="M158.515 0C70.9697 0 0 70.9688 0 158.515C0 246.061 70.9697 317.03 158.515 317.03C246.06 317.03 317.03 246.061 317.03 158.515" fill="white"/>
</mask>
<g mask="url(#mask7_708_2058)">
<path fill-rule="evenodd" clip-rule="evenodd" d="M140.515 221.53H109.493C104.762 221.53 100.927 217.694 100.927 212.964V130.084C100.927 125.354 104.762 121.52 109.493 121.52H140.515C145.246 121.52 149.08 125.354 149.08 130.084V212.964C149.08 217.694 145.246 221.53 140.515 221.53Z" fill="#FFE3E0"/>
</g>
<mask id="mask8_708_2058" style="mask-type:luminance" maskUnits="userSpaceOnUse" x="0" y="0" width="318" height="318">
<path fill-rule="evenodd" clip-rule="evenodd" d="M158.515 0C70.9697 0 0 70.9688 0 158.515C0 246.061 70.9697 317.03 158.515 317.03C246.06 317.03 317.03 246.061 317.03 158.515" fill="white"/>
</mask>
<g mask="url(#mask8_708_2058)">
<path fill-rule="evenodd" clip-rule="evenodd" d="M140.515 221.53H109.493C104.762 221.53 100.927 217.694 100.927 212.964V130.084C100.927 125.354 104.762 121.52 109.493 121.52H140.515C145.246 121.52 149.08 125.354 149.08 130.084V212.964C149.08 217.694 145.246 221.53 140.515 221.53Z" fill="#5470F2"/>
</g>
<mask id="mask9_708_2058" style="mask-type:luminance" maskUnits="userSpaceOnUse" x="0" y="0" width="318" height="318">
<path fill-rule="evenodd" clip-rule="evenodd" d="M158.515 0C70.9697 0 0 70.9688 0 158.515C0 246.061 70.9697 317.03 158.515 317.03C246.06 317.03 317.03 246.061 317.03 158.515" fill="white"/>
</mask>
<g mask="url(#mask9_708_2058)">
<path fill-rule="evenodd" clip-rule="evenodd" d="M138.124 152.36C138.124 159.606 132.249 165.479 125.003 165.479C117.758 165.479 111.884 159.606 111.884 152.36C111.884 145.114 117.758 139.241 125.003 139.241C132.249 139.241 138.124 145.114 138.124 152.36Z" fill="white"/>
</g>
<mask id="mask10_708_2058" style="mask-type:luminance" maskUnits="userSpaceOnUse" x="0" y="0" width="318" height="318">
<path fill-rule="evenodd" clip-rule="evenodd" d="M158.515 0C70.9697 0 0 70.9688 0 158.515C0 246.061 70.9697 317.03 158.515 317.03C246.06 317.03 317.03 246.061 317.03 158.515" fill="white"/>
</mask>
<g mask="url(#mask10_708_2058)">
<path d="M119.8 147.06C121.151 145.762 122.983 144.963 125.004 144.963C127.025 144.963 128.857 145.762 130.208 147.06" stroke="#5470F2" stroke-width="1.9592"/>
</g>
<mask id="mask11_708_2058" style="mask-type:luminance" maskUnits="userSpaceOnUse" x="0" y="0" width="318" height="318">
<path fill-rule="evenodd" clip-rule="evenodd" d="M158.515 0C70.9697 0 0 70.9688 0 158.515C0 246.061 70.9697 317.03 158.515 317.03C246.06 317.03 317.03 246.061 317.03 158.515" fill="white"/>
</mask>
<g mask="url(#mask11_708_2058)">
<path d="M130.769 157.295C129.391 158.942 127.32 159.991 125.004 159.991C122.688 159.991 120.616 158.942 119.238 157.295" stroke="#5470F2" stroke-width="1.9592"/>
</g>
<mask id="mask12_708_2058" style="mask-type:luminance" maskUnits="userSpaceOnUse" x="0" y="0" width="318" height="318">
<path fill-rule="evenodd" clip-rule="evenodd" d="M158.515 0C70.9697 0 0 70.9688 0 158.515C0 246.061 70.9697 317.03 158.515 317.03C246.06 317.03 317.03 246.061 317.03 158.515" fill="white"/>
</mask>
<g mask="url(#mask12_708_2058)">
<path d="M117.651 150.928C117.545 151.428 117.49 151.946 117.49 152.477C117.49 154.311 118.147 155.99 119.238 157.295" stroke="#5470F2" stroke-width="1.9592"/>
</g>
<mask id="mask13_708_2058" style="mask-type:luminance" maskUnits="userSpaceOnUse" x="0" y="0" width="318" height="318">
<path fill-rule="evenodd" clip-rule="evenodd" d="M158.515 0C70.9697 0 0 70.9688 0 158.515C0 246.061 70.9697 317.03 158.515 317.03C246.06 317.03 317.03 246.061 317.03 158.515" fill="white"/>
</mask>
<g mask="url(#mask13_708_2058)">
<path d="M130.769 157.295C131.861 155.99 132.518 154.311 132.518 152.477C132.518 151.947 132.462 151.428 132.357 150.928" stroke="#5470F2" stroke-width="1.9592"/>
</g>
<mask id="mask14_708_2058" style="mask-type:luminance" maskUnits="userSpaceOnUse" x="0" y="0" width="318" height="318">
<path fill-rule="evenodd" clip-rule="evenodd" d="M158.515 0C70.9697 0 0 70.9688 0 158.515C0 246.061 70.9697 317.03 158.515 317.03C246.06 317.03 317.03 246.061 317.03 158.515" fill="white"/>
</mask>
<g mask="url(#mask14_708_2058)">
<path d="M119.8 147.06C118.732 148.086 117.967 149.424 117.65 150.927" stroke="#5470F2" stroke-width="1.9592"/>
</g>
<mask id="mask15_708_2058" style="mask-type:luminance" maskUnits="userSpaceOnUse" x="0" y="0" width="318" height="318">
<path fill-rule="evenodd" clip-rule="evenodd" d="M158.515 0C70.9697 0 0 70.9688 0 158.515C0 246.061 70.9697 317.03 158.515 317.03C246.06 317.03 317.03 246.061 317.03 158.515" fill="white"/>
</mask>
<g mask="url(#mask15_708_2058)">
<path d="M130.208 147.06C131.276 148.086 132.041 149.424 132.357 150.927" stroke="#5470F2" stroke-width="1.9592"/>
</g>
<mask id="mask16_708_2058" style="mask-type:luminance" maskUnits="userSpaceOnUse" x="0" y="0" width="318" height="318">
<path fill-rule="evenodd" clip-rule="evenodd" d="M158.515 0C70.9697 0 0 70.9688 0 158.515C0 246.061 70.9697 317.03 158.515 317.03C246.06 317.03 317.03 246.061 317.03 158.515" fill="white"/>
</mask>
<g mask="url(#mask16_708_2058)">
<path d="M125.175 154.236C125.119 154.235 125.061 154.232 125.004 154.232C124.946 154.232 124.89 154.235 124.832 154.236" stroke="#5470F2" stroke-width="1.9592"/>
</g>
<mask id="mask17_708_2058" style="mask-type:luminance" maskUnits="userSpaceOnUse" x="0" y="0" width="318" height="318">
<path fill-rule="evenodd" clip-rule="evenodd" d="M158.515 0C70.9697 0 0 70.9688 0 158.515C0 246.061 70.9697 317.03 158.515 317.03C246.06 317.03 317.03 246.061 317.03 158.515" fill="white"/>
</mask>
<g mask="url(#mask17_708_2058)">
<path d="M130.769 157.295C129.684 155.512 127.592 154.291 125.176 154.235" stroke="#5470F2" stroke-width="1.9592"/>
</g>
<mask id="mask18_708_2058" style="mask-type:luminance" maskUnits="userSpaceOnUse" x="0" y="0" width="318" height="318">
<path fill-rule="evenodd" clip-rule="evenodd" d="M158.515 0C70.9697 0 0 70.9688 0 158.515C0 246.061 70.9697 317.03 158.515 317.03C246.06 317.03 317.03 246.061 317.03 158.515" fill="white"/>
</mask>
<g mask="url(#mask18_708_2058)">
<path d="M124.832 154.236C122.416 154.292 120.324 155.512 119.239 157.295" stroke="#5470F2" stroke-width="1.9592"/>
</g>
<mask id="mask19_708_2058" style="mask-type:luminance" maskUnits="userSpaceOnUse" x="0" y="0" width="318" height="318">
<path fill-rule="evenodd" clip-rule="evenodd" d="M158.515 0C70.9697 0 0 70.9688 0 158.515C0 246.061 70.9697 317.03 158.515 317.03C246.06 317.03 317.03 246.061 317.03 158.515" fill="white"/>
</mask>
<g mask="url(#mask19_708_2058)">
<path d="M125.176 154.236C128.717 154.192 131.654 152.788 132.357 150.928" stroke="#5470F2" stroke-width="1.9592"/>
</g>
<mask id="mask20_708_2058" style="mask-type:luminance" maskUnits="userSpaceOnUse" x="0" y="0" width="318" height="318">
<path fill-rule="evenodd" clip-rule="evenodd" d="M158.515 0C70.9697 0 0 70.9688 0 158.515C0 246.061 70.9697 317.03 158.515 317.03C246.06 317.03 317.03 246.061 317.03 158.515" fill="white"/>
</mask>
<g mask="url(#mask20_708_2058)">
<path d="M125.175 154.236C125.119 154.236 125.061 154.237 125.004 154.237C124.946 154.237 124.89 154.236 124.832 154.236" stroke="#5470F2" stroke-width="1.9592"/>
</g>
<mask id="mask21_708_2058" style="mask-type:luminance" maskUnits="userSpaceOnUse" x="0" y="0" width="318" height="318">
<path fill-rule="evenodd" clip-rule="evenodd" d="M158.515 0C70.9697 0 0 70.9688 0 158.515C0 246.061 70.9697 317.03 158.515 317.03C246.06 317.03 317.03 246.061 317.03 158.515" fill="white"/>
</mask>
<g mask="url(#mask21_708_2058)">
<path d="M124.832 154.236C121.291 154.192 118.354 152.788 117.651 150.928" stroke="#5470F2" stroke-width="1.9592"/>
</g>
<mask id="mask22_708_2058" style="mask-type:luminance" maskUnits="userSpaceOnUse" x="0" y="0" width="318" height="318">
<path fill-rule="evenodd" clip-rule="evenodd" d="M158.515 0C70.9697 0 0 70.9688 0 158.515C0 246.061 70.9697 317.03 158.515 317.03C246.06 317.03 317.03 246.061 317.03 158.515" fill="white"/>
</mask>
<g mask="url(#mask22_708_2058)">
<path fill-rule="evenodd" clip-rule="evenodd" d="M132.735 125.284H117.273C115.337 125.284 113.768 123.715 113.768 121.779V120.223H136.239V121.779C136.239 123.715 134.671 125.284 132.735 125.284Z" fill="#535565"/>
</g>
<mask id="mask23_708_2058" style="mask-type:luminance" maskUnits="userSpaceOnUse" x="0" y="0" width="318" height="318">
<path fill-rule="evenodd" clip-rule="evenodd" d="M158.515 0C70.9697 0 0 70.9688 0 158.515C0 246.061 70.9697 317.03 158.515 317.03C246.06 317.03 317.03 246.061 317.03 158.515" fill="white"/>
</mask>
<g mask="url(#mask23_708_2058)">
<path fill-rule="evenodd" clip-rule="evenodd" d="M124.055 210.279C116.638 208.615 111.986 201.256 113.648 193.851C113.721 193.525 114.009 193.297 114.338 193.295L117.501 193.276C117.845 193.273 118.141 193.519 118.204 193.857L118.865 197.408C118.924 197.719 118.768 198.032 118.485 198.174L116.41 199.214C116.965 201.717 118.402 203.952 120.386 205.49L122.213 204.059C122.463 203.864 122.812 203.856 123.069 204.042L125.995 206.157C126.275 206.36 126.369 206.732 126.221 207.042L124.852 209.894C124.708 210.191 124.378 210.352 124.055 210.279Z" fill="white"/>
</g>
<mask id="mask24_708_2058" style="mask-type:luminance" maskUnits="userSpaceOnUse" x="0" y="0" width="318" height="318">
<path fill-rule="evenodd" clip-rule="evenodd" d="M158.515 0C70.9697 0 0 70.9688 0 158.515C0 246.061 70.9697 317.03 158.515 317.03C246.06 317.03 317.03 246.061 317.03 158.515" fill="white"/>
</mask>
<g mask="url(#mask24_708_2058)">
<path fill-rule="evenodd" clip-rule="evenodd" d="M126.418 199.143C126.418 199.88 125.82 200.479 125.082 200.479C124.344 200.479 123.746 199.88 123.746 199.143C123.746 198.404 124.344 197.806 125.082 197.806C125.82 197.806 126.418 198.404 126.418 199.143Z" fill="white"/>
</g>
<mask id="mask25_708_2058" style="mask-type:luminance" maskUnits="userSpaceOnUse" x="0" y="0" width="318" height="318">
<path fill-rule="evenodd" clip-rule="evenodd" d="M158.515 0C70.9697 0 0 70.9688 0 158.515C0 246.061 70.9697 317.03 158.515 317.03C246.06 317.03 317.03 246.061 317.03 158.515" fill="white"/>
</mask>
<g mask="url(#mask25_708_2058)">
<path fill-rule="evenodd" clip-rule="evenodd" d="M130.713 199.143C130.713 199.88 130.115 200.479 129.377 200.479C128.639 200.479 128.041 199.88 128.041 199.143C128.041 198.404 128.639 197.806 129.377 197.806C130.115 197.806 130.713 198.404 130.713 199.143Z" fill="white"/>
</g>
<mask id="mask26_708_2058" style="mask-type:luminance" maskUnits="userSpaceOnUse" x="0" y="0" width="318" height="318">
<path fill-rule="evenodd" clip-rule="evenodd" d="M158.515 0C70.9697 0 0 70.9688 0 158.515C0 246.061 70.9697 317.03 158.515 317.03C246.06 317.03 317.03 246.061 317.03 158.515" fill="white"/>
</mask>
<g mask="url(#mask26_708_2058)">
<path fill-rule="evenodd" clip-rule="evenodd" d="M135.008 199.143C135.008 199.88 134.41 200.479 133.673 200.479C132.934 200.479 132.336 199.88 132.336 199.143C132.336 198.404 132.934 197.806 133.673 197.806C134.41 197.806 135.008 198.404 135.008 199.143Z" fill="white"/>
</g>
<mask id="mask27_708_2058" style="mask-type:luminance" maskUnits="userSpaceOnUse" x="0" y="0" width="318" height="318">
<path fill-rule="evenodd" clip-rule="evenodd" d="M158.515 0C70.9697 0 0 70.9688 0 158.515C0 246.061 70.9697 317.03 158.515 317.03C246.06 317.03 317.03 246.061 317.03 158.515" fill="white"/>
</mask>
<g mask="url(#mask27_708_2058)">
<path fill-rule="evenodd" clip-rule="evenodd" d="M139.028 175.625H111.862C111.203 175.625 110.67 175.091 110.67 174.433C110.67 173.775 111.203 173.242 111.862 173.242H139.028C139.686 173.242 140.219 173.775 140.219 174.433C140.219 175.091 139.686 175.625 139.028 175.625Z" fill="white"/>
</g>
<mask id="mask28_708_2058" style="mask-type:luminance" maskUnits="userSpaceOnUse" x="0" y="0" width="318" height="318">
<path fill-rule="evenodd" clip-rule="evenodd" d="M158.515 0C70.9697 0 0 70.9688 0 158.515C0 246.061 70.9697 317.03 158.515 317.03C246.06 317.03 317.03 246.061 317.03 158.515" fill="white"/>
</mask>
<g mask="url(#mask28_708_2058)">
<path fill-rule="evenodd" clip-rule="evenodd" d="M133.149 181.152H117.742C117.083 181.152 116.55 180.619 116.55 179.96C116.55 179.302 117.083 178.768 117.742 178.768H133.149C133.807 178.768 134.341 179.302 134.341 179.96C134.341 180.619 133.807 181.152 133.149 181.152Z" fill="white"/>
</g>
<mask id="mask29_708_2058" style="mask-type:luminance" maskUnits="userSpaceOnUse" x="0" y="0" width="318" height="318">
<path fill-rule="evenodd" clip-rule="evenodd" d="M158.515 0C70.9697 0 0 70.9688 0 158.515C0 246.061 70.9697 317.03 158.515 317.03C246.06 317.03 317.03 246.061 317.03 158.515C317.03 70.9688 246.06 0 158.515 0Z" fill="white"/>
</mask>
<g mask="url(#mask29_708_2058)">
<path fill-rule="evenodd" clip-rule="evenodd" d="M96.6087 197.542C114.613 200.93 115.517 214.118 114.457 235.908C97.3601 233.723 94.0945 213.462 94.0945 213.462L96.6087 197.542Z" fill="#EAC897"/>
</g>
<mask id="mask30_708_2058" style="mask-type:luminance" maskUnits="userSpaceOnUse" x="0" y="0" width="318" height="318">
<path fill-rule="evenodd" clip-rule="evenodd" d="M158.515 0C70.9697 0 0 70.9688 0 158.515C0 246.061 70.9697 317.03 158.515 317.03C246.06 317.03 317.03 246.061 317.03 158.515" fill="white"/>
</mask>
<g mask="url(#mask30_708_2058)">
<path fill-rule="evenodd" clip-rule="evenodd" d="M85.8098 193.822C89.8955 173.92 105.327 161.122 105.327 161.122C105.327 161.122 117.582 172.866 98.3224 189.32C98.3224 196.402 98.4626 198.282 98.4626 198.282" fill="#EAC897"/>
</g>
<mask id="mask31_708_2058" style="mask-type:luminance" maskUnits="userSpaceOnUse" x="0" y="0" width="318" height="318">
<path fill-rule="evenodd" clip-rule="evenodd" d="M158.515 0C70.9697 0 0 70.9688 0 158.515C0 246.061 70.9697 317.03 158.515 317.03C246.06 317.03 317.03 246.061 317.03 158.515" fill="white"/>
</mask>
<g mask="url(#mask31_708_2058)">
<path fill-rule="evenodd" clip-rule="evenodd" d="M152.831 182.404H147.043C144.039 182.404 141.604 179.969 141.604 176.964C141.604 173.959 144.039 171.524 147.043 171.524H152.831C155.836 171.524 158.271 173.959 158.271 176.964C158.271 179.969 155.836 182.404 152.831 182.404Z" fill="#EAC897"/>
</g>
<mask id="mask32_708_2058" style="mask-type:luminance" maskUnits="userSpaceOnUse" x="0" y="0" width="318" height="318">
<path fill-rule="evenodd" clip-rule="evenodd" d="M158.515 0C70.9697 0 0 70.9688 0 158.515C0 246.061 70.9697 317.03 158.515 317.03C246.06 317.03 317.03 246.061 317.03 158.515" fill="white"/>
</mask>
<g mask="url(#mask32_708_2058)">
<path fill-rule="evenodd" clip-rule="evenodd" d="M150.649 194.76H146.596C143.839 194.76 141.603 192.525 141.603 189.768V188.872C141.603 186.115 143.839 183.88 146.596 183.88H150.649C153.406 183.88 155.642 186.115 155.642 188.872V189.768C155.642 192.525 153.406 194.76 150.649 194.76Z" fill="#EAC897"/>
</g>
<mask id="mask33_708_2058" style="mask-type:luminance" maskUnits="userSpaceOnUse" x="0" y="0" width="318" height="318">
<path fill-rule="evenodd" clip-rule="evenodd" d="M158.515 0C70.9697 0 0 70.9688 0 158.515C0 246.061 70.9697 317.03 158.515 317.03C246.06 317.03 317.03 246.061 317.03 158.515" fill="white"/>
</mask>
<g mask="url(#mask33_708_2058)">
<path fill-rule="evenodd" clip-rule="evenodd" d="M151.971 207.888H151.17C148.167 207.888 145.73 205.453 145.73 202.448C145.73 199.443 148.167 197.009 151.17 197.009H151.971C154.976 197.009 157.411 199.443 157.411 202.448C157.411 205.453 154.976 207.888 151.971 207.888Z" fill="#EAC897"/>
</g>
<mask id="mask34_708_2058" style="mask-type:luminance" maskUnits="userSpaceOnUse" x="0" y="0" width="318" height="318">
<path fill-rule="evenodd" clip-rule="evenodd" d="M158.515 0C70.9697 0 0 70.9688 0 158.515C0 246.061 70.9697 317.03 158.515 317.03C246.06 317.03 317.03 246.061 317.03 158.515" fill="white"/>
</mask>
<g mask="url(#mask34_708_2058)">
<path fill-rule="evenodd" clip-rule="evenodd" d="M148.483 181.002C148.536 181.003 148.589 181.003 148.642 181.003C149.299 180.992 149.589 180.202 149.138 179.723C148.461 179.001 148.044 178.033 148.044 176.965C148.044 175.896 148.461 174.927 149.138 174.206C149.584 173.731 149.307 172.938 148.656 172.927C148.632 172.927 148.608 172.927 148.583 172.927C146.351 172.927 144.541 174.737 144.545 176.971C144.549 179.119 146.335 180.948 148.483 181.002Z" fill="#ECDBD0"/>
</g>
<mask id="mask35_708_2058" style="mask-type:luminance" maskUnits="userSpaceOnUse" x="0" y="0" width="318" height="318">
<path fill-rule="evenodd" clip-rule="evenodd" d="M158.515 0C70.9697 0 0 70.9688 0 158.515C0 246.061 70.9697 317.03 158.515 317.03C246.06 317.03 317.03 246.061 317.03 158.515" fill="white"/>
</mask>
<g mask="url(#mask35_708_2058)">
<path fill-rule="evenodd" clip-rule="evenodd" d="M148.004 193.367C148.248 193.375 148.486 193.36 148.718 193.326C149.175 193.258 149.335 192.702 148.986 192.4C148.127 191.655 147.586 190.554 147.595 189.327C147.604 188.1 148.16 187.008 149.029 186.275C149.378 185.979 149.235 185.42 148.783 185.346C148.58 185.312 148.373 185.294 148.162 185.292C145.93 185.277 144.108 187.076 144.095 189.308C144.083 191.456 145.857 193.298 148.004 193.367Z" fill="#ECDBD0"/>
</g>
<mask id="mask36_708_2058" style="mask-type:luminance" maskUnits="userSpaceOnUse" x="0" y="0" width="318" height="318">
<path fill-rule="evenodd" clip-rule="evenodd" d="M158.515 0C70.9697 0 0 70.9688 0 158.515C0 246.061 70.9697 317.03 158.515 317.03C246.06 317.03 317.03 246.061 317.03 158.515" fill="white"/>
</mask>
<g mask="url(#mask36_708_2058)">
<path fill-rule="evenodd" clip-rule="evenodd" d="M150.369 205.651C150.948 205.792 151.508 205.771 152.018 205.629C152.216 205.574 152.251 205.312 152.085 205.193C151.243 204.592 150.702 203.602 150.723 202.489C150.748 201.201 152.597 200.204 152.621 199.601C152.639 199.129 151.723 199.238 151.219 199.25C149.339 199.296 147.801 200.774 147.913 202.697C147.996 204.096 149.009 205.319 150.369 205.651Z" fill="#ECDBD0"/>
</g>
<mask id="mask37_708_2058" style="mask-type:luminance" maskUnits="userSpaceOnUse" x="0" y="0" width="318" height="318">
<path fill-rule="evenodd" clip-rule="evenodd" d="M158.515 0C70.9697 0 0 70.9688 0 158.515C0 246.061 70.9697 317.03 158.515 317.03C246.06 317.03 317.03 246.061 317.03 158.515C317.03 70.9688 246.06 0 158.515 0Z" fill="white"/>
</mask>
<g mask="url(#mask37_708_2058)">
<path fill-rule="evenodd" clip-rule="evenodd" d="M103.371 274.064L69.2964 247.419L74.291 241.031L108.365 267.676L103.371 274.064Z" fill="#ECECEC"/>
</g>
<mask id="mask38_708_2058" style="mask-type:luminance" maskUnits="userSpaceOnUse" x="0" y="0" width="318" height="318">
<path fill-rule="evenodd" clip-rule="evenodd" d="M158.515 0C70.9697 0 0 70.9688 0 158.515C0 246.061 70.9697 317.03 158.515 317.03C246.06 317.03 317.03 246.061 317.03 158.515C317.03 70.9688 246.06 0 158.515 0Z" fill="white"/>
</mask>
<g mask="url(#mask38_708_2058)">
<path fill-rule="evenodd" clip-rule="evenodd" d="M86.2074 304.065L44.3174 271.308L65.3879 244.362L107.278 277.12L86.2074 304.065Z" fill="#535565"/>
</g>
<mask id="mask39_708_2058" style="mask-type:luminance" maskUnits="userSpaceOnUse" x="0" y="0" width="318" height="318">
<path fill-rule="evenodd" clip-rule="evenodd" d="M158.515 0C70.9697 0 0 70.9688 0 158.515C0 246.061 70.9697 317.03 158.515 317.03C246.06 317.03 317.03 246.061 317.03 158.515C317.03 70.9688 246.06 0 158.515 0Z" fill="white"/>
</mask>
<g mask="url(#mask39_708_2058)">
<path fill-rule="evenodd" clip-rule="evenodd" d="M80.3486 256.061L68.5425 246.828L73.5371 240.441L85.3432 249.673L80.3486 256.061Z" fill="#CFCFCF"/>
</g>
<mask id="mask40_708_2058" style="mask-type:luminance" maskUnits="userSpaceOnUse" x="0" y="0" width="318" height="318">
<path fill-rule="evenodd" clip-rule="evenodd" d="M158.515 0C70.9697 0 0 70.9688 0 158.515C0 246.061 70.9697 317.03 158.515 317.03C246.06 317.03 317.03 246.061 317.03 158.515C317.03 70.9688 246.06 0 158.515 0Z" fill="white"/>
</mask>
<g mask="url(#mask40_708_2058)">
<path fill-rule="evenodd" clip-rule="evenodd" d="M57.1448 281.568L44.2996 271.523L65.3701 244.578L78.2162 254.623L57.1448 281.568Z" fill="#38414A"/>
</g>
<mask id="mask41_708_2058" style="mask-type:luminance" maskUnits="userSpaceOnUse" x="0" y="0" width="318" height="318">
<path fill-rule="evenodd" clip-rule="evenodd" d="M158.515 0C70.9697 0 0 70.9688 0 158.515C0 246.061 70.9697 317.03 158.515 317.03C246.06 317.03 317.03 246.061 317.03 158.515" fill="white"/>
</mask>
<g mask="url(#mask41_708_2058)">
<path fill-rule="evenodd" clip-rule="evenodd" d="M103.221 163.068C103.221 163.068 104.708 165.539 104.708 166.335C104.708 167.133 99.4138 173.139 97.8405 173.669C97.2221 173.879 94.1187 174.208 94.1187 174.208C94.1187 174.208 98.7577 166.937 103.221 163.068Z" fill="#ECDBD0"/>
</g>
</svg>
