<svg width="24" height="24" viewBox="0 0 24 24" fill="none" xmlns="http://www.w3.org/2000/svg">
<path d="M19.4047 14.7759L16.2567 19.905C15.911 20.4717 15.4404 20.9521 14.8807 21.3098C14.321 21.6675 13.687 21.893 13.0269 21.9692C12.8529 21.9898 12.6779 22.0001 12.5028 22C11.606 21.9988 10.7315 21.7208 9.99903 21.2042C9.24212 21.7704 8.30712 22.0472 7.36345 21.9843C6.41977 21.9215 5.52985 21.5233 4.85491 20.8617C4.17997 20.2002 3.76468 19.3191 3.68426 18.3782C3.60384 17.4373 3.86363 16.4987 4.41655 15.7326L3.31908 14.6384C2.85047 14.1705 2.49395 13.6027 2.27624 12.9777C2.05853 12.3526 1.98526 11.6865 2.06193 11.0292C2.1386 10.3719 2.36321 9.74044 2.71895 9.1821C3.07469 8.62375 3.55233 8.15301 4.1161 7.80512L8.92911 4.83348C10.2329 3.99913 11.7661 3.59462 13.3125 3.677C14.8589 3.75938 16.3403 4.32451 17.5478 5.29264L18.9323 3.91015C19.0093 3.83056 19.1014 3.76708 19.2032 3.7234C19.3051 3.67973 19.4146 3.65674 19.5254 3.65578C19.6362 3.65482 19.7461 3.6759 19.8487 3.7178C19.9512 3.7597 20.0444 3.82158 20.1228 3.89982C20.2011 3.97807 20.2631 4.07111 20.3051 4.17352C20.347 4.27594 20.3681 4.38567 20.3672 4.49632C20.3662 4.60696 20.3432 4.71631 20.2995 4.81798C20.2557 4.91965 20.1921 5.01161 20.1124 5.08848L18.7295 6.47013C19.657 7.63032 20.2167 9.04046 20.337 10.5201C20.4573 11.9997 20.1327 13.4815 19.4047 14.7759ZM8.72714 20.0392L5.62335 16.9392C5.3808 17.3723 5.28725 17.873 5.35705 18.3643C5.42685 18.8556 5.65614 19.3105 6.00976 19.6592C6.36647 19.9975 6.82019 20.216 7.30744 20.2842C7.79468 20.3523 8.29106 20.2667 8.72714 20.0392ZM17.007 7.03929C16.0802 6.105 14.8602 5.51683 13.5512 5.37317C12.2421 5.22952 10.9233 5.53911 9.81543 6.25013L4.99408 9.22178C4.64442 9.43758 4.3482 9.72957 4.12758 10.0759C3.90697 10.4222 3.76769 10.8139 3.72016 11.2216C3.67263 11.6293 3.7181 12.0424 3.85315 12.4301C3.98821 12.8177 4.20934 13.1698 4.50001 13.4601L10.5841 19.5359C10.8752 19.8269 11.2286 20.0482 11.6178 20.1832C12.0069 20.3182 12.4216 20.3633 12.8308 20.3152C13.2399 20.267 13.6328 20.1269 13.9798 19.9053C14.3269 19.6837 14.6191 19.3865 14.8346 19.0359L17.9684 13.9317C18.5805 12.834 18.8178 11.5671 18.6443 10.3227C18.4708 9.07828 17.896 7.9242 17.007 7.03513V7.03929ZM18.0744 22C17.8981 22.0003 17.7263 21.9449 17.5835 21.8417C17.4408 21.7385 17.3344 21.5929 17.2796 21.4256C17.2248 21.2583 17.2245 21.078 17.2787 20.9105C17.3329 20.7431 17.4387 20.597 17.5812 20.4933C19.0425 19.3963 20.0315 17.7856 20.3478 15.9875C20.37 15.8793 20.4135 15.7766 20.4758 15.6853C20.5381 15.594 20.618 15.516 20.7108 15.4558C20.8035 15.3956 20.9074 15.3544 21.0162 15.3347C21.1251 15.3149 21.2368 15.317 21.3449 15.3407C21.4529 15.3645 21.5552 15.4095 21.6457 15.473C21.7362 15.5366 21.8131 15.6175 21.872 15.7111C21.9309 15.8046 21.9705 15.9089 21.9887 16.0179C22.0068 16.1269 22.0031 16.2383 21.9777 16.3459C21.5688 18.5389 20.3515 20.4992 18.566 21.84C18.4232 21.9439 18.2511 22 18.0744 22ZM2.83086 6.78263C2.67671 6.78194 2.52577 6.73864 2.39477 6.65753C2.26376 6.57642 2.15781 6.46067 2.08867 6.32311C2.01953 6.18554 1.98989 6.03155 2.00304 5.8782C2.0162 5.72484 2.07163 5.57812 2.1632 5.45431C3.52437 3.63815 5.52806 2.40877 7.76571 2.01684C7.98262 1.97263 8.20824 2.01628 8.39293 2.13818C8.57761 2.26008 8.70624 2.45024 8.75051 2.66683C8.79478 2.88342 8.75106 3.1087 8.62898 3.29311C8.5069 3.47752 8.31645 3.60595 8.09954 3.65016C6.26178 3.95317 4.61287 4.95483 3.49852 6.44513C3.42122 6.54939 3.32061 6.6342 3.2047 6.69279C3.08878 6.75138 2.96077 6.78215 2.83086 6.78263Z" fill="#5E646B"/>
</svg>
