<svg width="50" height="50" viewBox="0 0 50 50" fill="none" xmlns="http://www.w3.org/2000/svg">
<g clip-path="url(#clip0_1614_26804)">
<path d="M25 0C18.8448 0.00438827 12.9086 2.28463 8.33333 6.40208V2.08333C8.33333 1.5308 8.11384 1.0009 7.72314 0.610194C7.33244 0.219493 6.80254 0 6.25 0C5.69747 0 5.16756 0.219493 4.77686 0.610194C4.38616 1.0009 4.16667 1.5308 4.16667 2.08333V8.33333C4.16667 9.99094 4.82515 11.5806 5.99725 12.7528C7.16935 13.9249 8.75906 14.5833 10.4167 14.5833H16.6667C17.2192 14.5833 17.7491 14.3638 18.1398 13.9731C18.5305 13.5824 18.75 13.0525 18.75 12.5C18.75 11.9475 18.5305 11.4176 18.1398 11.0269C17.7491 10.6362 17.2192 10.4167 16.6667 10.4167H10.4167C10.3464 10.4063 10.2768 10.3916 10.2083 10.3729C13.6032 6.95381 18.0794 4.81891 22.8731 4.33264C27.6667 3.84636 32.4805 5.03886 36.4928 7.70658C40.5051 10.3743 43.4671 14.3519 44.8733 18.9603C46.2795 23.5688 46.0427 28.5224 44.2033 32.9757C42.3639 37.429 39.0359 41.1058 34.7874 43.3786C30.5389 45.6514 25.6333 46.3793 20.9079 45.438C16.1826 44.4966 11.9304 41.9444 8.8772 38.2171C5.82401 34.4897 4.15911 29.8182 4.16667 25C4.16667 24.4475 3.94717 23.9176 3.55647 23.5269C3.16577 23.1362 2.63587 22.9167 2.08333 22.9167C1.5308 22.9167 1.0009 23.1362 0.610194 23.5269C0.219493 23.9176 0 24.4475 0 25C0 29.9445 1.46622 34.778 4.21326 38.8893C6.9603 43.0005 10.8648 46.2048 15.4329 48.097C20.0011 49.9892 25.0277 50.4843 29.8773 49.5196C34.7268 48.555 39.1814 46.174 42.6777 42.6777C46.174 39.1814 48.555 34.7268 49.5196 29.8773C50.4843 25.0277 49.9892 20.0011 48.097 15.4329C46.2048 10.8648 43.0005 6.9603 38.8893 4.21326C34.778 1.46622 29.9445 0 25 0Z" fill="#007BFF"/>
<path d="M25.0003 12.5C24.4478 12.5 23.9179 12.7195 23.5272 13.1102C23.1365 13.5009 22.917 14.0308 22.917 14.5833V25C22.9171 25.5525 23.1367 26.0823 23.5274 26.4729L29.7774 32.7229C30.1703 33.1024 30.6966 33.3124 31.2428 33.3077C31.7891 33.3029 32.3116 33.0838 32.6979 32.6975C33.0841 32.3113 33.3032 31.7887 33.308 31.2425C33.3127 30.6963 33.1027 30.17 32.7232 29.7771L27.0837 24.1375V14.5833C27.0837 14.0308 26.8642 13.5009 26.4735 13.1102C26.0828 12.7195 25.5529 12.5 25.0003 12.5Z" fill="#007BFF"/>
</g>
<defs>
<clipPath id="clip0_1614_26804">
<rect width="50" height="50" fill="white"/>
</clipPath>
</defs>
</svg>
